<?xml version="1.0" encoding="UTF-8"?>
<svg width="700pt" height="700pt" version="1.1" viewBox="0 0 700 700" xmlns="http://www.w3.org/2000/svg" xmlns:xlink="http://www.w3.org/1999/xlink">
 <g>
  <path d="m504.56 152.88c-48.719 0-88.48 39.199-88.48 87.359 0 48.16 39.762 87.359 88.48 87.359s88.48-39.199 88.48-87.359c0-48.16-39.758-87.359-88.48-87.359zm-38.637 106.96c-11.199 0-20.16-8.9609-20.16-20.16 0-11.199 8.9609-20.16 20.16-20.16s20.16 8.9609 20.16 20.16c-0.003906 11.199-9.5234 20.16-20.16 20.16zm42.559 44.238c-10.641 0-19.602-8.9609-19.602-19.602 0-10.641 8.9609-19.602 19.602-19.602s19.602 8.9609 19.602 19.602c-0.003906 11.203-8.9609 19.602-19.602 19.602zm0-89.039c-11.199 0-20.16-8.9609-20.16-20.16 0-11.199 8.9609-20.16 20.16-20.16s20.16 8.9609 20.16 20.16c0 11.199-8.9609 20.16-20.16 20.16zm64.398 24.641c0 10.641-8.3984 19.039-19.039 19.039s-19.039-8.3984-19.039-19.039c0-10.641 8.3984-19.039 19.039-19.039s19.039 8.9609 19.039 19.039z"/>
  <path d="m598.08 245.28c-0.55859-56-43.68-82.879-43.68-82.879l-5.6016-25.762s-2.2383-7.2812-13.441-12.879c0-2.2383-1.1211-6.7188-5.0391-7.8398-6.1602-2.2383-29.68-8.3984-54.32 0 0 0-5.0391 1.1211-5.6016 8.3984-7.8398 5.0391-8.9609 10.641-8.9609 10.641l-5.0352 28.559c-8.3984 2.2383-14 9.5195-14 9.5195h-184.8s-5.6016-7.2812-14-9.5195l-4.4805-28.559s-0.55859-5.0391-7.2812-10.078c0-7.8398-5.6016-9.5195-5.6016-9.5195-25.199-8.9609-48.16-2.2383-54.32 0-3.9219 1.1211-5.0391 4.4805-5.0391 7.2812-12.32 5.6016-15.121 14-15.121 14l-5.6016 25.762s-14.559 8.9609-26.32 27.441c16.238-24.078 44.238-40.32 75.602-40.32 50.398 0 91.281 40.879 91.281 91.281 0 50.398-40.879 91.281-91.281 91.281-50.398-0.011719-92.398-40.891-92.398-91.289 0-15.68 3.9219-29.68 10.641-42.559-6.7188 12.32-11.762 28-11.762 47.039-1.1172 56-3.918 147.28-3.918 147.28s-1.1211 38.078 39.762 50.398c40.32 12.32 59.359-14.559 64.398-22.398 5.0391-7.8398 50.961-90.16 50.961-90.16s6.1602-12.32 20.16-12.32h75.039 78.398c14 0 20.16 12.32 20.16 12.32s45.922 82.32 50.961 90.16c5.0391 7.8398 24.078 34.719 64.398 22.398 40.32-12.32 39.762-50.398 39.762-50.398s-3.3594-91.277-3.9219-147.28zm-270.48 33.039c0 2.8008-2.8008 5.6016-5.6016 5.6016h-15.68c-3.3594 0-5.6016-2.2383-5.6016-5.6016v-6.7188c0-2.8008 2.8008-5.6016 5.6016-5.6016h15.68c3.3594 0 5.6016 2.2383 5.6016 5.6016zm64.398 2.8008-17.359 2.8008c-3.3594 0-6.1602-2.2383-6.1602-5.6016v-6.7188c0-3.3594 2.8008-5.6016 6.1602-5.6016l17.359 3.9219s6.7188 1.1211 6.7188 5.6016c0 4.4766-6.7188 5.5977-6.7188 5.5977zm113.12 50.957c-50.398 0-91.281-40.879-91.281-91.281 0-50.398 40.879-91.281 91.281-91.281 50.398 0.003906 91.277 40.883 91.277 91.285 0 50.398-40.879 91.277-91.277 91.277z"/>
  <path d="m194.88 327.6c48.719 0 88.48-39.199 88.48-87.359 0-48.16-39.762-87.359-88.48-87.359s-88.48 39.199-88.48 87.359c0.5625 48.156 39.762 87.359 88.48 87.359zm3.3594-33.043-7.2812 5.6016h-0.55859l-6.7188-5.6016c-0.55859-0.55859 0-0.55859 0.55859-0.55859h13.441c0.55859 0 1.1211 0.55859 0.55859 0.55859zm7.2812-14.559c0 2.8008-2.2383 5.0391-5.6016 5.0391h-19.039c-2.8008 0-5.6016-2.2383-5.6016-5.0391v-15.121c0-1.6797 0.55859-2.8008 1.6797-3.9219 2.8008-2.8008 9.5195-8.9609 13.441-8.9609 3.9219 0 10.078 6.1602 12.879 8.9609 1.1211 1.1211 1.6797 2.2383 1.6797 3.9219l0.003907 15.121zm42-47.039c0-0.55859 0.55859-0.55859 1.1211-0.55859l5.6016 7.2812v0.55859l-5.6016 6.7188c-0.55859 0.55859-0.55859 0-0.55859-0.55859l-0.003906-13.441zm-30.238-7.8398h15.117c2.8008 0 5.0391 2.2383 5.0391 5.6016v19.039c0 2.8008-2.2383 5.6016-5.0391 5.6016h-15.121c-1.6797 0-2.8008-0.55859-3.9219-1.6797-2.8008-2.8008-8.9609-9.5195-8.9609-13.441 0-3.9219 6.1602-10.078 8.9609-12.879 1.6836-1.6836 2.8047-2.2422 3.9258-2.2422zm-31.922-41.441 7.2812-5.6016h0.55859l6.7188 5.6016c0.55859 0.55859 0 0.55859-0.55859 0.55859h-13.441c-1.1172 0.5625-1.1172 0-0.55859-0.55859zm-7.8398 15.121c0-2.8008 2.2383-5.0391 5.6016-5.0391h19.039c2.8008 0 5.6016 2.2383 5.6016 5.0391v15.121c0 1.6797-0.55859 2.8008-1.6797 3.9219-2.8008 2.8008-9.5195 8.9609-13.441 8.9609s-10.078-6.1602-12.879-8.9609c-1.1211-1.1211-1.6797-2.2383-1.6797-3.9219l-0.003906-15.121zm-31.918 30.238c0-2.8008 2.2383-5.6016 5.0391-5.6016h15.121c1.6797 0 2.8008 0.55859 3.9219 1.6797 2.8008 2.8008 8.9609 9.5195 8.9609 13.441s-6.1602 10.078-8.9609 12.879c-1.1211 1.1211-2.2383 1.6797-3.9219 1.6797h-15.121c-2.8008 0-5.0391-2.2383-5.0391-5.6016zm-10.641 2.2422c0.55859-0.55859 0.55859 0 0.55859 0.55859v13.441c0 0.55859-0.55859 0.55859-1.1211 0.55859l-5.6016-7.2812v-0.55859z"/>
 </g>
</svg>
