<?xml version="1.0" encoding="UTF-8"?>
<svg width="700pt" height="700pt" version="1.1" viewBox="0 0 700 700" xmlns="http://www.w3.org/2000/svg" xmlns:xlink="http://www.w3.org/1999/xlink">
 <g>
  <path d="m449.68 324.24c0 9.8984-8.0234 17.922-17.918 17.922-9.8984 0-17.922-8.0234-17.922-17.922 0-9.8945 8.0234-17.918 17.922-17.918 9.8945 0 17.918 8.0234 17.918 17.918"/>
  <path d="m431.76 290.08c-18.48 0-33.602 15.121-33.602 33.602 0 18.48 15.121 33.602 33.602 33.602s33.602-15.121 33.602-33.602c-0.003906-19.039-15.125-33.602-33.602-33.602zm0 56c-12.32 0-21.84-10.078-21.84-21.84 0-12.32 10.078-21.84 21.84-21.84 12.32 0 21.84 10.078 21.84 21.84 0 12.32-9.5234 21.84-21.84 21.84z"/>
  <path d="m544.32 204.4c-1.6797-5.6016-12.879-16.801-3.3594-25.762-7.2812-7.8398-16.801-13.441-28-15.68-2.8008 11.199-17.359 7.2812-22.961 8.3984-5.0391 1.1211-14.559 10.078-22.398 5.0391-9.5195 9.5195-15.68 22.398-15.68 36.398 0 3.3594 0.55859 6.1602 1.1211 9.5195 7.2812 2.8008 12.32 10.078 12.32 18.48 0 2.2383-0.55859 3.9219-1.1211 5.6016 9.5195 10.641 23.52 17.922 38.641 17.922 23.52 0 43.121-15.68 49.281-37.52-8.9648-3.3555-6.1641-16.797-7.8438-22.398zm-41.441 36.402c-15.68 0-28.559-12.879-28.559-28.559 0-15.68 12.879-28.559 28.559-28.559 15.68 0 28.559 12.879 28.559 28.559 0.5625 15.68-12.316 28.559-28.559 28.559z"/>
  <path d="m590.8 206.64s0-8.3984-5.6016-20.719c-4.4805-12.32-11.199-24.078-21.281-33.602-2.8008-2.8008-6.1602-5.6016-8.9609-7.8398 6.1602-6.1602-0.55859-11.199-0.55859-11.199-3.9219-3.3594-8.3984-6.1602-12.879-8.3984-5.6016-7.2812-13.441-15.121-22.961-19.039-11.199-5.0391-21.84-1.6797-29.121 1.6797-6.7188-1.1211-9.5195 0-11.199 1.6797-0.55859 0-1.1211-0.55859-1.6797-0.55859 0 0-61.039-20.719-123.2-20.719s-129.92 20.719-129.92 20.719c-1.6797 0.55859-3.3594 1.1211-5.0391 1.1211-6.1602-3.9219-20.16-10.641-34.16-4.4805-16.801 7.2812-28.559 25.762-31.922 33.602-6.1602 3.9219-11.762 7.8398-16.801 13.441-10.641 10.641-18.48 23.52-22.398 37.52-3.9219 10.078-3.9219 16.801-3.9219 16.801 0.003907-0.007813-11.195 74.473-11.195 143.91 0 30.242 1.6797 59.922 7.8398 82.32 24.078 62.719 58.801 21.281 64.398 0.55859 0 0 16.238-86.801 20.719-94.641 1.6797-2.2383 4.4805-11.199 10.641-21.84 8.3984 14.559 9.5195 35.281 23.52 50.398 20.16 22.398 63.84 24.078 87.922 0 24.078-24.078 21.84-67.762-1.1211-87.922-9.5195-8.3984-15.68-15.68-19.602-22.961 53.762-12.879 105.28-2.2383 114.8 0-3.9219 7.2812-9.5195 14.559-19.602 22.961-22.961 20.16-25.199 63.281-1.1211 87.922 24.078 24.078 67.762 22.398 87.922 0 14-15.121 14.559-35.84 23.52-50.961 6.1602 11.199 8.9609 19.602 10.641 22.398 5.0391 7.8398 20.719 94.641 20.719 94.641 5.6016 20.719 39.762 62.16 64.398-0.55859 6.7266-22.395 8.4062-52.074 8.4062-82.316 0-69.438-11.199-143.92-11.199-143.92zm-392 64.961c-31.922 0-58.238-26.32-58.238-58.238 0-31.922 26.32-58.238 58.238-58.238 31.922 0 58.238 26.32 58.238 58.238s-25.758 58.238-58.238 58.238zm112 51.52c0 23.52-19.039 42.559-42.559 42.559-23.52 0-42.559-19.039-42.559-42.559 0-23.52 19.039-42.559 42.559-42.559 23.52-0.003906 42.559 19.039 42.559 42.559zm39.758-94.082c-7.2812 0-13.441-6.1602-13.441-13.441s6.1602-13.441 13.441-13.441 13.441 6.1602 13.441 13.441-5.6016 13.441-13.441 13.441zm110.32 124.88-29.121 11.762-29.68-12.32-11.199-28.559 12.32-29.68 29.121-12.32 30.238 11.762 11.199 31.922zm99.68-126.56h-3.9219c-6.1602 23.52-27.441 40.879-53.199 40.879-16.238 0-30.238-6.7188-40.32-17.922-3.3594 5.6016-9.5195 10.078-16.801 10.078-10.641 0-19.602-8.9609-19.602-19.602s8.9609-19.602 19.602-19.602c1.1211 0 2.2383 0 2.8008 0.55859-0.55859-2.8008-0.55859-5.6016-0.55859-8.3984 0-15.121 6.1602-29.121 16.238-39.199-1.1211-1.1211-2.2383-2.8008-3.3594-5.0391-5.0391-17.922 20.16-24.641 20.16-24.641s31.359-6.7188 32.48 12.32v2.8008c11.762 2.2383 22.398 8.3984 30.238 17.359 0.55859-0.55859 1.1211-0.55859 1.6797-1.1211 17.922-5.6016 25.762 19.039 25.762 19.039 0.003907 0.007812 7.8438 30.809-11.199 32.488z"/>
  <path d="m232.4 182.56-31.918-14.559-32.48 11.199-14.559 29.68 10.641 33.602 31.922 15.121 31.359-11.762 15.68-31.359zm-34.16 63.281c-18.48 0-33.602-15.121-33.602-33.602s15.121-33.602 33.602-33.602 33.602 15.121 33.602 33.602-15.121 33.602-33.602 33.602z"/>
  <path d="m360.08 215.6c0 5.2578-4.2617 9.5195-9.5195 9.5195-5.2578 0-9.5195-4.2617-9.5195-9.5195 0-5.2578 4.2617-9.5234 9.5195-9.5234 5.2578 0 9.5195 4.2656 9.5195 9.5234"/>
  <path d="m230.16 323.12c0 21.281 17.359 38.078 38.078 38.078 21.281 0 38.078-17.359 38.078-38.078 0-21.281-17.359-38.078-38.078-38.078-21.277-0.003907-38.078 16.797-38.078 38.078zm48.719-29.121v17.359h19.039c1.6797 0 3.3594 1.6797 3.3594 3.3594v14.559c0 1.6797-1.6797 3.3594-3.3594 3.3594h-17.922v19.039c0 1.6797-1.6797 3.3594-3.3594 3.3594h-15.121c-1.6797 0-3.3594-1.6797-3.3594-3.3594v-19.039h-18.48c-1.6797 0-3.3594-1.6797-3.3594-3.3594v-14.559c0-1.6797 1.6797-3.3594 3.3594-3.3594h18.48v-17.359c0-1.6797 1.6797-3.3594 3.3594-3.3594h14c1.6836 0 3.3633 1.6797 3.3633 3.3594z"/>
 </g>
</svg>
