<?xml version="1.0" encoding="UTF-8"?>
<svg width="700pt" height="700pt" version="1.1" viewBox="0 0 700 700" xmlns="http://www.w3.org/2000/svg" xmlns:xlink="http://www.w3.org/1999/xlink">
 <g>
  <path d="m589.12 166.32h-478.24c-7.2812 0-12.879 5.6016-12.879 12.879v192.08c0 7.2812 5.6016 12.879 12.879 12.879h478.8c7.2812 0 12.879-5.6016 12.879-12.879l-0.003906-192.08c-0.55859-7.2773-6.1602-12.879-13.438-12.879zm6.1602 194.88c0 7.2812-5.6016 13.441-12.879 13.441h-463.68c-7.2812 0-12.879-6.1602-12.879-13.441v-152.88c0-7.2812 5.6016-13.441 12.879-13.441h464.24c7.2812 0 12.879 6.1602 12.879 13.441z"/>
  <path d="m572.88 203.28h-172.48v10.641c0 3.3594-3.3594 5.6016-7.2812 5.6016h-133.84c-2.8008 0-5.0391-1.6797-5.0391-3.9219v-12.32h-127.12c-6.7188 0-12.32 5.6016-12.32 11.762v139.44c0 6.7188 5.6016 11.762 12.32 11.762h127.68v-4.4805c0-3.9219 3.3594-7.2812 7.2812-7.2812h133.84c2.8008 0 5.0391 2.2383 5.0391 5.0391v6.7188h171.92c6.7188 0 12.32-5.6016 12.32-11.762v-138.88c0-6.7227-5.5977-12.32-12.32-12.32zm-348.88 99.117c0 2.2383-1.1211 3.9219-3.3594 3.9219h-25.199v25.762c0 2.2383-1.6797 3.9219-3.9219 3.9219h-20.719c-2.2383 0-2.8008-1.6797-2.8008-3.9219v-25.762h-25.762c-2.2383 0-2.8008-0.55859-2.8008-2.8008v-20.16c0-2.2383 0.55859-2.8008 2.8008-2.8008h25.199v-25.199c0-2.2383 0.55859-3.9219 2.8008-3.9219h21.281c2.2383 0 3.9219 1.6797 3.9219 3.9219v25.199h24.641c2.2383 0 3.9219 1.6797 3.9219 3.9219zm176.4 36.961c0 3.9219-3.3594 7.2812-7.2812 7.2812h-131.6c-3.9219 0-7.2812-3.3594-7.2812-7.2812v-38.078c0-3.9219 3.3594-7.2812 7.2812-7.2812h131.6c3.9219 0 7.2812 3.3594 7.2812 7.2812zm0-59.918c0 2.8008-2.8008 5.6016-6.1602 5.6016l-133.84-0.003907c-3.3594 0-5.6016-2.2383-5.6016-5.0391v-12.32c0-2.8008 2.8008-5.0391 6.1602-5.0391h133.84c3.3594 0 5.6016 2.2383 5.6016 5.0391zm0-32.48c0 3.3594-2.8008 5.6016-6.1602 5.6016l-133.84-0.003906c-3.3594 0-5.6016-2.2383-5.6016-5.0391l0.003906-12.32c0-2.8008 2.8008-5.0391 6.1602-5.0391h133.84c3.3594 0 5.6016 2.2383 5.6016 5.6016zm78.961 96.879c0 1.6797-1.6797 3.3594-3.3594 3.3594h-50.398c-1.6797 0-3.3594-1.6797-3.3594-3.3594v-50.398c0-1.6797 1.6797-3.3594 3.3594-3.3594h50.398c1.6797 0 3.3594 1.6797 3.3594 3.3594zm67.762 0c0 1.6797-1.6797 3.3594-3.3594 3.3594h-50.398c-1.6797 0-3.3594-1.6797-3.3594-3.3594v-50.398c0-1.6797 1.6797-3.3594 3.3594-3.3594h50.398c1.6797 0 3.3594 1.6797 3.3594 3.3594z"/>
  <path d="m388.08 300.72h-123.2c-2.2383 0-3.3594 1.6797-3.3594 3.3594v31.359c0 1.6797 1.6797 3.3594 3.3594 3.3594h123.2c2.2383 0 3.3594-1.6797 3.3594-3.3594v-31.359c0.003906-1.6797-1.1172-3.3594-3.3594-3.3594zm-77.84 26.32h-26.32c-4.4805 0-7.8398-2.8008-7.8398-6.7188 0-3.9219 3.3594-6.7188 7.8398-6.7188h26.32c4.4805 0 7.8398 2.8008 7.8398 6.7188 0 3.3594-3.3594 6.7188-7.8398 6.7188zm59.922 0h-26.32c-4.4805 0-7.8398-2.8008-7.8398-6.7188 0-3.9219 3.3594-6.7188 7.8398-6.7188h26.32c4.4805 0 7.8398 2.8008 7.8398 6.7188 0 3.3594-3.3594 6.7188-7.8398 6.7188z"/>
  <path d="m473.2 319.2c0 12.371-10.027 22.402-22.398 22.402-12.371 0-22.402-10.031-22.402-22.402 0-12.371 10.031-22.398 22.402-22.398 12.371 0 22.398 10.027 22.398 22.398"/>
  <path d="m540.4 319.2c0 12.371-10.027 22.402-22.398 22.402s-22.398-10.031-22.398-22.402c0-12.371 10.027-22.398 22.398-22.398s22.398 10.027 22.398 22.398"/>
 </g>
</svg>
