<?xml version="1.0" encoding="UTF-8"?>
<svg width="700pt" height="700pt" version="1.1" viewBox="0 0 700 700" xmlns="http://www.w3.org/2000/svg" xmlns:xlink="http://www.w3.org/1999/xlink">
 <g>
  <path d="m542 508.27h-100.32c-4.418 0-8-3.582-8-8s3.582-8 8-8h100.32c4.418 0 8 3.582 8 8s-3.582 8-8 8zm44.961-96.984h-20.32v-12.48c0-13.441-10.879-24.398-24.32-24.398h-27.281c-13.441 0-24.398 10.961-24.398 24.398v12.48h-36v-12.48c0-13.441-10.879-24.398-24.32-24.398h-27.281c-13.441 0-24.398 10.961-24.398 24.398v12.48h-85.121v-14.48c0-20.238-16.48-36.719-36.719-36.719h-22.801v-213.28c26.16-9.8398 44-35.121 44-63.52 0-37.52-30.48-68-68-68s-68 30.48-68 68c0 28.48 17.918 53.762 44 63.52v213.28h-22.801c-20.242 0-36.719 16.48-36.719 36.719v14.48h-13.441c-14.957 0-27.039 12.078-27.039 26.957v54h300.64c4.4805 0 8 3.6016 8 8 0 4.4805-3.5195 8-8 8h-300.64v9.5195c0 14.879 12.082 26.961 27.039 26.961h473.92c14.961 0 27.043-12.078 27.043-26.957v-79.52c0-14.883-12.082-26.961-27.039-26.961z"/>
 </g>
</svg>
