<?xml version="1.0" encoding="UTF-8"?>
<svg width="700pt" height="700pt" version="1.1" viewBox="0 0 700 700" xmlns="http://www.w3.org/2000/svg" xmlns:xlink="http://www.w3.org/1999/xlink">
 <g>
  <path d="m68.41 371.48c-3.1836 0-5.5664 2.3867-5.5664 5.5664 0 3.1836 2.3867 5.5664 5.5664 5.5664 3.1836 0 5.5664-2.3867 5.5664-5.5664 0-2.3828-3.1797-5.5664-5.5664-5.5664zm0 0c-3.1836 0-5.5664 2.3867-5.5664 5.5664 0 3.1836 2.3867 5.5664 5.5664 5.5664 3.1836 0 5.5664-2.3867 5.5664-5.5664 0-2.3828-3.1797-5.5664-5.5664-5.5664zm0 0c-3.1836 0-5.5664 2.3867-5.5664 5.5664 0 3.1836 2.3867 5.5664 5.5664 5.5664 3.1836 0 5.5664-2.3867 5.5664-5.5664 0-2.3828-3.1797-5.5664-5.5664-5.5664zm0 0c-3.1836 0-5.5664 2.3867-5.5664 5.5664 0 3.1836 2.3867 5.5664 5.5664 5.5664 3.1836 0 5.5664-2.3867 5.5664-5.5664 0-2.3828-3.1797-5.5664-5.5664-5.5664zm0 0c-3.1836 0-5.5664 2.3867-5.5664 5.5664 0 3.1836 2.3867 5.5664 5.5664 5.5664 3.1836 0 5.5664-2.3867 5.5664-5.5664 0-2.3828-3.1797-5.5664-5.5664-5.5664zm0 0c-3.1836 0-5.5664 2.3867-5.5664 5.5664 0 3.1836 2.3867 5.5664 5.5664 5.5664 3.1836 0 5.5664-2.3867 5.5664-5.5664 0-2.3828-3.1797-5.5664-5.5664-5.5664zm0 0c-3.1836 0-5.5664 2.3867-5.5664 5.5664 0 3.1836 2.3867 5.5664 5.5664 5.5664 3.1836 0 5.5664-2.3867 5.5664-5.5664 0-2.3828-3.1797-5.5664-5.5664-5.5664zm480.45-172.61h-399.32c-0.79688 0-1.5898 0.79688-1.5898 1.5898v225.91c0 0.79688 0.79688 1.5898 1.5898 1.5898h399.32c0.79688 0 1.5898-0.79688 1.5898-1.5898v-225.91c0-0.79297-0.79297-1.5898-1.5898-1.5898zm0 0h-399.32c-0.79688 0-1.5898 0.79688-1.5898 1.5898v225.91c0 0.79688 0.79688 1.5898 1.5898 1.5898h399.32c0.79688 0 1.5898-0.79688 1.5898-1.5898v-225.91c0-0.79297-0.79297-1.5898-1.5898-1.5898zm-480.45 172.61c-3.1836 0-5.5664 2.3867-5.5664 5.5664 0 3.1836 2.3867 5.5664 5.5664 5.5664 3.1836 0 5.5664-2.3867 5.5664-5.5664 0-2.3828-3.1797-5.5664-5.5664-5.5664zm0 0c-3.1836 0-5.5664 2.3867-5.5664 5.5664 0 3.1836 2.3867 5.5664 5.5664 5.5664 3.1836 0 5.5664-2.3867 5.5664-5.5664 0-2.3828-3.1797-5.5664-5.5664-5.5664zm480.45-172.61h-399.32c-0.79688 0-1.5898 0.79688-1.5898 1.5898v225.91c0 0.79688 0.79688 1.5898 1.5898 1.5898h399.32c0.79688 0 1.5898-0.79688 1.5898-1.5898v-225.91c0-0.79297-0.79297-1.5898-1.5898-1.5898zm0 0h-399.32c-0.79688 0-1.5898 0.79688-1.5898 1.5898v225.91c0 0.79688 0.79688 1.5898 1.5898 1.5898h399.32c0.79688 0 1.5898-0.79688 1.5898-1.5898v-225.91c0-0.79297-0.79297-1.5898-1.5898-1.5898zm-480.45 172.61c-3.1836 0-5.5664 2.3867-5.5664 5.5664 0 3.1836 2.3867 5.5664 5.5664 5.5664 3.1836 0 5.5664-2.3867 5.5664-5.5664 0-2.3828-3.1797-5.5664-5.5664-5.5664zm572.73-200.45h-582.27c-32.613 0-58.863 25.453-58.863 57.273v171.02c0 31.816 26.25 58.066 58.863 57.273h582.27c31.816 0 58.066-25.453 58.863-57.273v-171.02c0-31.82-26.25-57.273-58.863-57.273zm6.3633 38.977c6.3633 0 11.137 4.7734 10.34 11.137 0 6.3633-4.7734 11.137-11.137 10.34-5.5664 0-10.34-4.7734-10.34-10.34 0-6.3633 4.7734-11.137 11.137-11.137zm0 43.75c6.3633 0 11.137 4.7734 10.34 11.137 0 6.3633-4.7734 11.137-11.137 10.34-6.3633 0-10.34-4.7734-10.34-11.137 0-5.5664 4.7734-10.34 11.137-10.34zm-595.8-35c12.727 0 23.066 11.137 23.066 23.863 0 12.727-11.137 23.066-23.863 23.066-12.723 0.003906-23.066-10.34-23.066-23.066 0-13.523 10.344-23.863 23.863-23.863zm11.137 82.727c0 5.5664-4.7734 10.34-10.34 10.34s-10.34-4.7734-10.34-10.34c0-5.5664 4.7734-10.34 10.34-10.34s9.5469 3.9766 10.34 10.34zm-34.203 31.82c-5.5664 0-10.34-4.7734-10.34-10.34 0-5.5664 4.7734-10.34 10.34-10.34 5.5664 0 9.5469 4.7734 10.34 9.5469 0.79688 5.5625-3.9766 10.336-10.34 11.133 0.79688-0.79688 0.79688-0.79688 0 0zm12.727 10.34c0-5.5664 3.9766-10.34 10.34-11.137 5.5664 0 10.34 3.9766 11.137 10.34 0 5.5664-3.9766 10.34-10.34 11.137h-0.79688c-5.5664 0-10.34-4.7734-10.34-10.34zm37.387 41.363c0 0.79688-0.79688 2.3867-2.3867 2.3867h-15.91c-0.79688 0-2.3867-0.79688-2.3867-2.3867v-15.113c0-0.79688 0.79688-2.3867 2.3867-2.3867h15.91c0.79688 0 2.3867 0.79688 2.3867 2.3867zm-3.1836-52.5c-5.5664 0-10.34-4.7734-10.34-10.34s4.7734-10.34 10.34-10.34 10.34 4.7734 10.34 10.34c0.003906 5.5664-4.7695 10.34-10.34 10.34zm12.73-132.84h-13.523v-3.1836h14.316zm499.54 241.02c0 4.7734-3.1836 7.9531-7.9531 7.9531h-0.79688-458.18c-4.7734 0-7.9531-3.1836-7.9531-7.1602v-0.79687-254.55c0-4.7734 3.1836-7.9531 7.9531-7.9531h0.79688 458.18c4.7734 0 7.9531 3.1836 7.9531 7.1602v0.79688zm23.863-244.21h3.9766l0.003906-5.5664h3.1836v5.5664h5.5664v3.1836h-5.5664v5.5664h-3.1836v-5.5664h-4.7734zm1.5938 46.137c0-6.3633 4.7734-11.137 11.137-11.137 6.3633 0 11.137 4.7734 11.137 11.137s-4.7734 11.137-11.137 11.137c-6.3672 0-11.137-4.7734-11.137-11.137zm19.09 146.36c-6.3633 0-11.934-5.5664-11.934-11.934 0-6.3633 5.5664-11.934 11.934-11.934 6.3633 0 11.934 5.5664 11.934 11.934-0.003906 6.3672-5.5703 11.934-11.934 11.934zm15.91-42.16c-12.727 0-23.066-11.137-23.066-23.863s11.137-23.066 23.863-23.066 23.066 10.34 23.066 23.066c-0.79688 13.523-11.137 23.863-23.863 23.863zm23.863-93.066c-6.3633 0-11.137-4.7734-11.137-11.137s4.7734-11.137 11.137-11.137c6.3633 0 11.137 4.7734 11.137 11.137-0.79688 6.3633-5.5703 11.137-11.137 11.137zm-123.3-54.887h-399.32c-0.79688 0-1.5898 0.79688-1.5898 1.5898v225.91c0 0.79688 0.79688 1.5898 1.5898 1.5898h399.32c0.79688 0 1.5898-0.79688 1.5898-1.5898v-225.91c0-0.79297-0.79297-1.5898-1.5898-1.5898zm-480.45 172.61c-3.1836 0-5.5664 2.3867-5.5664 5.5664 0 3.1836 2.3867 5.5664 5.5664 5.5664 3.1836 0 5.5664-2.3867 5.5664-5.5664 0-2.3828-3.1797-5.5664-5.5664-5.5664zm0 0c-3.1836 0-5.5664 2.3867-5.5664 5.5664 0 3.1836 2.3867 5.5664 5.5664 5.5664 3.1836 0 5.5664-2.3867 5.5664-5.5664 0-2.3828-3.1797-5.5664-5.5664-5.5664zm480.45-172.61h-399.32c-0.79688 0-1.5898 0.79688-1.5898 1.5898v225.91c0 0.79688 0.79688 1.5898 1.5898 1.5898h399.32c0.79688 0 1.5898-0.79688 1.5898-1.5898v-225.91c0-0.79297-0.79297-1.5898-1.5898-1.5898zm0 0h-399.32c-0.79688 0-1.5898 0.79688-1.5898 1.5898v225.91c0 0.79688 0.79688 1.5898 1.5898 1.5898h399.32c0.79688 0 1.5898-0.79688 1.5898-1.5898v-225.91c0-0.79297-0.79297-1.5898-1.5898-1.5898zm-480.45 172.61c-3.1836 0-5.5664 2.3867-5.5664 5.5664 0 3.1836 2.3867 5.5664 5.5664 5.5664 3.1836 0 5.5664-2.3867 5.5664-5.5664 0-2.3828-3.1797-5.5664-5.5664-5.5664zm0 0c-3.1836 0-5.5664 2.3867-5.5664 5.5664 0 3.1836 2.3867 5.5664 5.5664 5.5664 3.1836 0 5.5664-2.3867 5.5664-5.5664 0-2.3828-3.1797-5.5664-5.5664-5.5664zm0 0c-3.1836 0-5.5664 2.3867-5.5664 5.5664 0 3.1836 2.3867 5.5664 5.5664 5.5664 3.1836 0 5.5664-2.3867 5.5664-5.5664 0-2.3828-3.1797-5.5664-5.5664-5.5664zm0 0c-3.1836 0-5.5664 2.3867-5.5664 5.5664 0 3.1836 2.3867 5.5664 5.5664 5.5664 3.1836 0 5.5664-2.3867 5.5664-5.5664 0-2.3828-3.1797-5.5664-5.5664-5.5664zm0 0c-3.1836 0-5.5664 2.3867-5.5664 5.5664 0 3.1836 2.3867 5.5664 5.5664 5.5664 3.1836 0 5.5664-2.3867 5.5664-5.5664 0-2.3828-3.1797-5.5664-5.5664-5.5664zm0 0c-3.1836 0-5.5664 2.3867-5.5664 5.5664 0 3.1836 2.3867 5.5664 5.5664 5.5664 3.1836 0 5.5664-2.3867 5.5664-5.5664 0-2.3828-3.1797-5.5664-5.5664-5.5664zm0 0c-3.1836 0-5.5664 2.3867-5.5664 5.5664 0 3.1836 2.3867 5.5664 5.5664 5.5664 3.1836 0 5.5664-2.3867 5.5664-5.5664 0-2.3828-3.1797-5.5664-5.5664-5.5664z"/>
  <path d="m24.66 322.16 6.3633-3.1836v7.1602z"/>
  <path d="m52.5 297.5 3.1836 6.3633h-6.3672z"/>
  <path d="m79.547 322.16-6.3633 3.9766v-7.1602z"/>
  <path d="m51.703 348.41-3.1797-6.3633h6.3633z"/>
 </g>
</svg>
