<?xml version="1.0" encoding="UTF-8"?>
<svg width="700pt" height="700pt" version="1.1" viewBox="0 0 700 700" xmlns="http://www.w3.org/2000/svg" xmlns:xlink="http://www.w3.org/1999/xlink">
 <g>
  <path d="m460.32 282.8c0 12.988-10.531 23.52-23.52 23.52-12.992 0-23.52-10.531-23.52-23.52 0-12.992 10.527-23.52 23.52-23.52 12.988 0 23.52 10.527 23.52 23.52"/>
  <path d="m511.28 253.68c0 12.68-10.281 22.961-22.961 22.961-12.68 0-22.961-10.281-22.961-22.961 0-12.68 10.281-22.961 22.961-22.961 12.68 0 22.961 10.281 22.961 22.961"/>
  <path d="m540.96 212.8c-12.32 0-20.16 8.9609-20.16 21.281 0 13.441 12.879 22.398 21.281 22.398 12.32 0 21.281-8.9609 21.281-21.281-0.003906-12.32-10.082-22.398-22.402-22.398z"/>
  <path d="m352.24 126h-4.4805c-136.64 0-248.08 60.48-249.76 142.24-1.6797 81.762 48.16 127.12 48.16 127.12s24.641 30.242 53.762 30.242 38.078-25.199 38.078-25.199c13.441-69.441 104.72-64.402 104.72-64.402h3.9219s101.92-5.0391 115.36 64.398c0 0 8.9609 25.199 38.078 25.199 29.121 0 53.762-30.238 53.762-30.238s49.84-45.359 48.16-127.12c-1.6797-81.758-113.68-142.24-249.76-142.24zm-141.68 204.4c-42 0-75.602-31.359-75.602-72.238s34.16-76.16 75.602-76.16c42 0 72.801 27.441 72.801 68.32 0 40.879-30.801 80.078-72.801 80.078zm228.48-144.48 33.602-14.559c2.8008-1.1211 5.6016 0 6.7188 2.8008 1.1211 2.8008 0 5.6016-2.8008 6.7188l-33.602 14.559c-2.8008 1.1211-5.6016 0-6.7188-2.8008-1.1172-2.8008 0-5.6016 2.8008-6.7188zm113.12 89.598s-27.441 8.9609-50.398 19.039c-22.961 10.078-44.238 25.199-44.238 25.199s-30.238 19.039-52.641-24.078c-11.199-21.281 9.5195-49.281 19.039-55.441 0 0 11.762-13.441 41.441-26.32 29.68-12.879 50.398-12.32 50.398-12.32 19.602-1.1211 40.32-2.2383 49.84 20.16 0.55859 0.003907 20.16 37.523-13.441 53.762z"/>
  <path d="m210 202.16c-30.238 0-54.879 25.762-54.879 55.441 0 29.68 24.641 52.641 54.879 52.641s52.641-28.559 52.641-58.238c0.55859-29.684-22.402-49.844-52.641-49.844zm42 44.238v12.879c0 2.2383-1.6797 3.9219-3.9219 3.9219h-26.879c-1.1211 0-1.6797 1.1211-2.2383 1.6797v28.559c0 2.2383-1.6797 3.9219-3.9219 3.9219h-15.121c-2.2383 0-3.9219-1.6797-3.9219-3.9219l1.1211-27.441c0-1.1211-1.1211-2.2383-2.2383-2.2383h-26.32c-2.2383 0-3.9219-1.6797-3.9219-3.9219v-13.441c0-2.2383 1.6797-3.9219 3.9219-3.9219h28c1.1211 0 2.2383-1.1211 2.2383-2.2383v-25.762c0-2.2383 1.6797-3.9219 3.9219-3.9219h14c2.2383 0 3.9219 1.6797 3.9219 3.9219v26.328c0 1.1211 1.1211 2.2383 2.2383 2.2383h25.199c2.2422-0.55859 3.9219 1.6797 3.9219 3.3594z"/>
 </g>
</svg>
