<?xml version="1.0" encoding="UTF-8"?>
<svg width="700pt" height="700pt" version="1.1" viewBox="0 0 700 700" xmlns="http://www.w3.org/2000/svg" xmlns:xlink="http://www.w3.org/1999/xlink">
 <g>
  <path d="m548.24 184.8v-6.7188c0-2.8008-2.2383-3.3594-2.2383-3.3594-25.762-13.441-50.961-12.32-50.961-12.32h-54.32c-2.8008 0-2.8008 2.2383-2.8008 2.2383v5.0391h-179.2v-5.0391s0-2.2383-2.8008-2.2383h-54.32s-25.762-1.1211-50.961 12.32c0 0-2.2383 0.55859-2.2383 3.3594v7.2812c-30.238 19.598-50.398 53.195-50.398 91.277 0 59.359 42 106.96 101.36 106.96 0 0 44.238 1.1211 65.52-21.84 0 0 1.1211-1.6797 5.6016-1.6797l157.92-0.003906s2.2383-0.55859 3.9219 1.6797c21.281 24.078 67.199 21.84 67.199 21.84 58.801 0 101.36-47.602 101.36-106.96 0-38.637-21.277-72.797-52.641-91.836zm-344.96 151.2c-32.48 0-58.801-26.32-58.801-58.801s26.32-59.359 58.801-59.359 58.801 26.32 58.801 58.801c-0.003906 32.48-26.32 59.359-58.801 59.359zm120.4-43.121-21.281 16.801c-4.4805 3.9219-10.641 3.3594-14.559-0.55859-3.9219-3.9219-3.9219-11.199 0-15.121l20.719-15.68c4.4805-3.9219 11.199-3.9219 15.121 0.55859 3.9219 3.3594 3.9219 10.082 0 14zm53.199 0-21.281 16.801c-4.4805 3.9219-10.641 3.3594-14.559-0.55859-3.9219-3.9219-3.9219-11.199 0-15.121l20.719-15.68c4.4805-3.9219 11.199-3.9219 15.121 0.55859 3.9219 4.4805 3.9219 10.082 0 14zm117.04 78.402c-52.078 0-94.078-42-94.078-94.078s42-94.078 94.078-94.078 94.078 42 94.078 94.078-42 94.078-94.078 94.078z"/>
  <path d="m310.8 282.8-17.359 12.879c-2.2383 2.2383-2.2383 5.6016 0 7.8398 2.2383 2.2383 5.0391 2.2383 7.8398 0.55859l17.359-13.441c2.2383-1.6797 2.2383-5.6016 0-7.8398-2.2422-1.6758-5.6016-1.6758-7.8398 0.003906z"/>
  <path d="m363.44 282.8-17.359 12.879c-2.2383 2.2383-2.2383 5.6016 0 7.8398s5.0391 2.2383 7.8398 0.55859l17.359-13.441c2.2383-1.6797 2.2383-5.6016 0-7.8398-1.6797-1.6758-5.043-1.6758-7.8398 0.003906z"/>
  <path d="m493.92 189.28c-48.16 0-87.359 39.199-87.359 87.359-0.003906 48.16 39.199 87.359 87.359 87.359s87.359-39.199 87.359-87.359-39.203-87.359-87.359-87.359zm-65.523 103.04c-8.9609-9.5195-8.9609-25.199 0.55859-34.719l47.602-36.961c10.078-8.9609 25.199-8.3984 34.719 0.55859 8.9609 9.5195 8.9609 25.199 0 33.602l-49.281 38.641c-11.195 8.957-24.637 7.8398-33.598-1.1211zm82.883 41.441c-10.641 8.9609-24.078 7.8398-33.602-1.6797-9.5195-9.5195-8.9609-25.199 0.55859-34.719l47.602-36.961c10.078-8.9609 25.199-8.3984 34.719 0.55859 8.9609 9.5195 8.9609 25.199 0 33.602z"/>
  <path d="m463.68 275.52c0 10.207-8.2734 18.48-18.48 18.48s-18.48-8.2734-18.48-18.48 8.2734-18.48 18.48-18.48 18.48 8.2734 18.48 18.48"/>
  <path d="m511.84 239.12c0 10.207-8.2734 18.48-18.48 18.48s-18.48-8.2734-18.48-18.48c0-10.207 8.2734-18.48 18.48-18.48s18.48 8.2734 18.48 18.48"/>
  <path d="m513.52 315.28c0 10.203-8.2734 18.48-18.48 18.48-10.207 0-18.48-8.2773-18.48-18.48 0-10.207 8.2734-18.48 18.48-18.48 10.207 0 18.48 8.2734 18.48 18.48"/>
  <path d="m561.68 278.88c0 10.207-8.2734 18.48-18.48 18.48s-18.48-8.2734-18.48-18.48c0-10.207 8.2734-18.48 18.48-18.48s18.48 8.2734 18.48 18.48"/>
  <path d="m238.56 264.88h-22.961l0.003906-24.078c0-2.2383-1.6797-3.9219-3.9219-3.9219h-18.48c-2.2383 0-2.8008 1.6797-2.8008 3.9219v24.078h-23.52c-2.2383 0-2.8008 0.55859-2.8008 2.8008v18.48c0 2.2383 0.55859 2.8008 2.8008 2.8008h24.078v24.641c0 2.2383 0.55859 3.9219 2.8008 3.9219h18.48c2.2383 0 3.9219-1.6797 3.9219-3.9219v-24.641h22.961c2.2383 0 3.9219-1.6797 3.9219-3.9219v-16.801c-0.5625-1.6797-2.2422-3.3594-4.4844-3.3594z"/>
 </g>
</svg>
