<?xml version="1.0" encoding="UTF-8"?>
<svg width="700pt" height="700pt" version="1.1" viewBox="0 0 700 700" xmlns="http://www.w3.org/2000/svg" xmlns:xlink="http://www.w3.org/1999/xlink">
 <g>
  <path d="m564.78 251.87c-46.609 0-53.641-40.289-53.898-44.449-0.31641-5.6133-4.9648-9.8828-10.469-10.055-0.20703-0.011719-0.40234-0.0625-0.61328-0.0625l-299.59-0.003906c-0.41797 0-0.8125 0.078125-1.2148 0.12109-0.16406 0.019531-0.32812 0.023437-0.49219 0.050781-0.53125 0.085938-1.043 0.22266-1.5469 0.38281-0.16797 0.054688-0.33594 0.09375-0.5 0.15625-0.48047 0.17969-0.9375 0.40625-1.3828 0.65234-0.16016 0.085938-0.32422 0.16406-0.47656 0.26172-0.42578 0.26172-0.81641 0.5625-1.1953 0.87891-0.14844 0.12109-0.30078 0.23438-0.44141 0.36328-0.35938 0.33203-0.67578 0.69141-0.98828 1.0703-0.12891 0.15625-0.26562 0.30078-0.38281 0.46484-0.28125 0.38281-0.52344 0.79297-0.75 1.2148-0.10547 0.19141-0.21484 0.37109-0.30859 0.57031-0.19531 0.41406-0.34375 0.85156-0.48438 1.293-0.078124 0.23828-0.16016 0.47266-0.22266 0.71875-0.097656 0.40234-0.15234 0.82031-0.19922 1.2422-0.027344 0.23047-0.09375 0.44531-0.10938 0.67969-0.25391 4.1367-1.4727 44.449-54.281 44.449-9.4766 0-12.602 5.6367-12.602 12.602v85.637c0 6.957 5.6406 12.602 12.602 12.602h429.56c6.957 0 12.602-5.6445 12.602-12.602l-0.007813-85.641c0-6.9609-4.7461-12.598-12.602-12.598zm-106.06-22.07c0-1.9062 1.5469-3.4531 3.4531-3.4531h12.887c1.9062 0 3.4531 1.5469 3.4531 3.4531v12.887c0 1.9062-1.5469 3.4531-3.4531 3.4531h-12.887c-1.9062 0-3.4531-1.5469-3.4531-3.4531zm-33.836 0c0-1.9062 1.5469-3.4531 3.4531-3.4531h12.887c1.9062 0 3.4531 1.5469 3.4531 3.4531v12.887c0 1.9062-1.5469 3.4531-3.4531 3.4531h-12.887c-1.9062 0-3.4531-1.5469-3.4531-3.4531zm-33.836 0c0-1.9062 1.5469-3.4531 3.4531-3.4531h12.887c1.9062 0 3.4531 1.5469 3.4531 3.4531v12.887c0 1.9062-1.5469 3.4531-3.4531 3.4531h-12.887c-1.9062 0-3.4531-1.5469-3.4531-3.4531zm-33.836 0c0-1.9062 1.5469-3.4531 3.4531-3.4531h12.887c1.9062 0 3.4531 1.5469 3.4531 3.4531v12.887c0 1.9062-1.5469 3.4531-3.4531 3.4531h-12.887c-1.9062 0-3.4531-1.5469-3.4531-3.4531zm-33.836 0c0-1.9062 1.5469-3.4531 3.4531-3.4531h12.887c1.9062 0 3.4531 1.5469 3.4531 3.4531v12.887c0 1.9062-1.5469 3.4531-3.4531 3.4531h-12.887c-1.9062 0-3.4531-1.5469-3.4531-3.4531zm-33.836 0c0-1.9062 1.5469-3.4531 3.4531-3.4531h12.887c1.9062 0 3.4531 1.5469 3.4531 3.4531v12.887c0 1.9062-1.5469 3.4531-3.4531 3.4531h-12.887c-1.9062 0-3.4531-1.5469-3.4531-3.4531zm-33.836 0c0-1.9062 1.5469-3.4531 3.4531-3.4531h12.887c1.9062 0 3.4531 1.5469 3.4531 3.4531v12.887c0 1.9062-1.5469 3.4531-3.4531 3.4531h-12.887c-1.9062 0-3.4531-1.5469-3.4531-3.4531zm-33.836 0c0-1.9062 1.5469-3.4531 3.4531-3.4531h12.887c1.9062 0 3.4531 1.5469 3.4531 3.4531v12.887c0 1.9062-1.5469 3.4531-3.4531 3.4531h-12.887c-1.9062 0-3.4531-1.5469-3.4531-3.4531zm-14.043 102.14c0 1.9062-1.5469 3.4531-3.4531 3.4531h-12.887c-1.9062 0-3.4531-1.5469-3.4531-3.4531v-12.887c0-1.9062 1.5469-3.4531 3.4531-3.4531h12.887c1.9062 0 3.4531 1.5469 3.4531 3.4531zm33.836 0c0 1.9062-1.5469 3.4531-3.4531 3.4531h-12.887c-1.9062 0-3.4531-1.5469-3.4531-3.4531v-12.887c0-1.9062 1.5469-3.4531 3.4531-3.4531h12.887c1.9062 0 3.4531 1.5469 3.4531 3.4531zm33.836 0c0 1.9062-1.5469 3.4531-3.4531 3.4531h-12.887c-1.9062 0-3.4531-1.5469-3.4531-3.4531v-12.887c0-1.9062 1.5469-3.4531 3.4531-3.4531h12.887c1.9062 0 3.4531 1.5469 3.4531 3.4531zm33.836 0c0 1.9062-1.5469 3.4531-3.4531 3.4531h-12.887c-1.9062 0-3.4531-1.5469-3.4531-3.4531v-12.887c0-1.9062 1.5469-3.4531 3.4531-3.4531h12.887c1.9062 0 3.4531 1.5469 3.4531 3.4531zm33.836 0c0 1.9062-1.5469 3.4531-3.4531 3.4531h-12.887c-1.9062 0-3.4531-1.5469-3.4531-3.4531v-12.887c0-1.9062 1.5469-3.4531 3.4531-3.4531h12.887c1.9062 0 3.4531 1.5469 3.4531 3.4531zm33.836 0c0 1.9062-1.5469 3.4531-3.4531 3.4531h-12.887c-1.9062 0-3.4531-1.5469-3.4531-3.4531v-12.887c0-1.9062 1.5469-3.4531 3.4531-3.4531h12.887c1.9062 0 3.4531 1.5469 3.4531 3.4531zm33.836 0c0 1.9062-1.5469 3.4531-3.4531 3.4531h-12.887c-1.9062 0-3.4531-1.5469-3.4531-3.4531v-12.887c0-1.9062 1.5469-3.4531 3.4531-3.4531h12.887c1.9062 0 3.4531 1.5469 3.4531 3.4531zm33.836 0c0 1.9062-1.5469 3.4531-3.4531 3.4531h-12.887c-1.9062 0-3.4531-1.5469-3.4531-3.4531v-12.887c0-1.9062 1.5469-3.4531 3.4531-3.4531h12.887c1.9062 0 3.4531 1.5469 3.4531 3.4531zm33.836 0c0 1.9062-1.5469 3.4531-3.4531 3.4531h-12.887c-1.9062 0-3.4531-1.5469-3.4531-3.4531v-12.887c0-1.9062 1.5469-3.4531 3.4531-3.4531h12.887c1.9062 0 3.4531 1.5469 3.4531 3.4531zm33.84 0c0 1.9062-1.5469 3.4531-3.4531 3.4531h-12.887c-1.9062 0-3.4531-1.5469-3.4531-3.4531v-12.887c0-1.9062 1.5469-3.4531 3.4531-3.4531h12.887c1.9062 0 3.4531 1.5469 3.4531 3.4531zm31.422-44.359c0 1.2656-1.0273 2.293-2.2891 2.293h-382.59c-1.2656 0-2.2891-1.0273-2.2891-2.293v-13.422c0-1.2656 1.0273-2.2891 2.2891-2.2891h382.59c1.2656 0 2.2891 1.0273 2.2891 2.2891z"/>
 </g>
</svg>
