<?xml version="1.0" encoding="UTF-8"?>
<svg width="700pt" height="700pt" version="1.1" viewBox="0 0 700 700" xmlns="http://www.w3.org/2000/svg" xmlns:xlink="http://www.w3.org/1999/xlink">
 <g>
  <path d="m414.96 257.6c-15.121 0-28 12.32-28 28 0 15.68 12.32 28 28 28 15.121 0 28-12.32 28-28 0-15.68-12.32-28-28-28zm0 45.918c-10.078 0-17.922-8.3984-17.922-17.922 0-9.5195 8.3984-17.922 17.922-17.922 9.5195 0 17.922 8.3984 17.922 17.922-0.003906 9.5234-7.8438 17.922-17.922 17.922z"/>
  <path d="m222.32 180.88c-15.121 0-28 12.32-28 28 0 15.68 12.32 28 28 28 15.68 0 28-12.32 28-28 0-15.68-12.879-28-28-28zm0 45.922c-10.078 0-17.922-8.3984-17.922-17.922 0-9.5195 8.3984-17.922 17.922-17.922 9.5195 0 17.922 8.3984 17.922 17.922-0.003907 9.5195-7.8438 17.922-17.922 17.922z"/>
  <path d="m296.24 280.56c-0.55859 0-1.6797-0.55859-1.6797-1.6797v-18.48c0-1.1211-1.1211-2.2383-2.2383-2.2383h-14.559c-1.1211 0-2.2383 1.1211-2.2383 2.2383v18.48c0 0.55859-0.55859 1.6797-1.6797 1.6797h-18.48c-1.1211 0-2.2383 1.1211-2.2383 2.2383v14.559c0 1.1211 1.1211 2.2383 2.2383 2.2383h18.48c0.55859 0 1.6797 0.55859 1.6797 1.6797v18.48c0 1.1211 1.1211 2.2383 2.2383 2.2383h14.559c1.1211 0 2.2383-1.1211 2.2383-2.2383v-18.48c0-0.55859 0.55859-1.6797 1.6797-1.6797h18.48c1.1211 0 2.2383-1.1211 2.2383-2.2383v-14.559c0-1.1211-1.1211-2.2383-2.2383-2.2383z"/>
  <path d="m592.48 304.64s-42-125.44-47.602-138.88c-5.6016-13.441-16.238-16.801-16.238-16.801-5.6016-8.9609-7.8398-16.238-7.8398-16.238-26.879-17.922-76.16-31.359-87.922-22.398-11.762 8.9609-20.16 9.5195-20.16 9.5195l-62.719-0.003906h-63.281s-8.3984-0.55859-20.16-9.5195c-11.762-8.9609-61.039 5.0391-87.922 22.398 0 0-2.2383 7.2812-7.8398 16.238 0 0-10.641 3.3594-16.238 16.801-5.6016 13.441-47.602 138.88-47.602 138.88s-39.199 131.04 43.68 140c0 0 2.2383 0.55859 11.199-7.2812 0 0 65.52-63.84 71.68-67.762 6.1602-3.3594 12.879-11.199 28.559-11.199h86.801 86.801c16.238 0 22.398 7.8398 28.559 11.199 7.8438 3.3672 73.367 67.207 73.367 67.207 9.5195 8.3984 11.199 7.2812 11.199 7.2812 83.438-8.4023 43.68-139.44 43.68-139.44zm-370.16-56.562c-21.281 0-38.641-17.359-38.641-38.641s17.359-38.641 38.641-38.641 38.641 17.359 38.641 38.641-17.359 38.641-38.641 38.641zm63.281 84c-22.961 0-41.441-18.48-41.441-41.441 0-22.961 18.48-41.441 41.441-41.441 22.961 0 41.441 18.48 41.441 41.441-0.003907 22.965-19.043 41.441-41.441 41.441zm17.359-122.64c0-6.1602 5.0391-11.199 11.199-11.199s11.199 5.0391 11.199 11.199-5.0391 11.199-11.199 11.199-11.199-5.0391-11.199-11.199zm6.1602-29.121s-7.8398-1.1211-11.762-6.1602c-3.918-5.0391-36.961-40.879-36.961-40.879s-3.3594-6.1602-16.801-3.9219c-14 2.2383-47.602 10.078-68.879 21.281 0 0 10.078-5.0391 11.762-15.68 0 0 31.922-17.359 67.762-19.602 0 0 7.8398-2.2383 14 3.9219 6.1602 6.1602 19.602 7.8398 28 7.8398h108.08c8.3984 0 21.84-2.2383 28-7.8398 6.1602-6.1602 14-3.9219 14-3.9219 35.84 2.2383 67.762 19.602 67.762 19.602 2.2383 10.641 11.762 15.68 11.762 15.68-20.719-11.199-54.879-19.039-68.879-21.281-14-2.2383-16.801 3.9219-16.801 3.9219s-33.039 35.281-36.961 40.32c-3.9219 5.0391-11.762 6.1602-11.762 6.1602l-41.441 1.1172zm187.6-4.4805c0 9.5195-7.2812 16.801-16.801 16.801s-16.801-7.2812-16.801-16.801c0-9.5195 7.2812-16.801 16.801-16.801 9.5234 0 16.801 7.8398 16.801 16.801zm-110.32 22.398c6.1602 0 11.199 5.0391 11.199 11.199s-5.0391 11.199-11.199 11.199c-6.1602 0-11.199-5.0391-11.199-11.199 0-6.1562 5.0391-11.199 11.199-11.199zm56.562 115.36c-15.121 15.121-39.762 15.121-54.32 0-15.121-15.121-15.121-39.762 0-54.32 15.121-15.121 39.762-15.121 54.32 0 15.117 14.559 15.117 39.199 0 54.32zm2.2383-87.363c-9.5195 0-16.801-7.2812-16.801-16.801s7.2812-16.801 16.801-16.801 16.801 7.2812 16.801 16.801c0 9.5234-7.2812 16.801-16.801 16.801zm33.602 33.602c-9.5195 0-16.801-7.2812-16.801-16.801 0-9.5195 7.2812-16.801 16.801-16.801s16.801 7.2812 16.801 16.801c0 9.5195-7.2812 16.801-16.801 16.801zm34.719-33.602c-9.5195 0-16.801-7.2812-16.801-16.801s7.2812-16.801 16.801-16.801 16.801 7.2812 16.801 16.801c0 9.5234-7.2812 16.801-16.801 16.801z"/>
  <path d="m371.28 152.88c0 11.754-9.5273 21.281-21.281 21.281s-21.281-9.5273-21.281-21.281c0-11.75 9.5273-21.277 21.281-21.277s21.281 9.5273 21.281 21.277"/>
 </g>
</svg>
