<?xml version="1.0" encoding="UTF-8"?>
<svg width="700pt" height="700pt" version="1.1" viewBox="0 0 700 700" xmlns="http://www.w3.org/2000/svg" xmlns:xlink="http://www.w3.org/1999/xlink">
 <g>
  <path d="m564.48 217.84c0-30.801-25.199-56-56-56s-56 25.199-56 56c0 30.801 25.199 56 56 56s56-24.641 56-56zm-18.48-16.801c8.9609 0 16.238 7.2812 16.238 16.238 0 8.9609-7.2812 16.238-16.238 16.238-8.9609 0-16.238-7.2812-16.238-16.238 0-8.957 7.2773-16.238 16.238-16.238zm-36.961-37.52c8.9609 0 16.238 7.2812 16.238 16.238 0.003906 8.9609-7.2773 16.242-16.238 16.242-8.9609 0-16.238-7.2812-16.238-16.238 0-8.9609 6.7188-16.242 16.238-16.242zm-37.52 70c-8.9609 0-16.238-7.2812-16.238-16.238 0-8.9609 7.2812-16.238 16.238-16.238 8.9609 0 16.238 7.2812 16.238 16.238 0.003907 8.957-7.2773 16.238-16.238 16.238zm20.719 20.719c0-8.9609 7.2812-16.238 16.238-16.238 8.9609 0 16.238 7.2812 16.238 16.238 0 8.9609-7.2812 16.238-16.238 16.238-8.957 0.003907-16.238-7.2773-16.238-16.238z"/>
  <path d="m193.76 161.84c-30.801 0-56 25.199-56 56 0 30.801 25.199 56 56 56s56-25.199 56-56c0-30.801-25.203-56-56-56zm-7.2812 7.8398 6.7188-5.6016h0.55859l6.1602 5.6016c0.55859 0 0 0.55859-0.55859 0.55859h-12.879c-0.55859 0-0.55859-0.55859 0-0.55859zm-5.6016 13.441c0-2.8008 2.2383-5.0391 4.4805-5.0391h16.238c2.8008 0 4.4805 2.2383 4.4805 5.0391v14.559c0 1.6797-0.55859 2.8008-1.1211 3.9219-2.8008 2.8008-8.3984 8.9609-11.762 8.9609-3.3594 0-8.3984-6.1602-11.199-8.9609-0.55859-1.1211-1.1211-2.2383-1.1211-3.3594zm-34.719 41.438c0 0.55859-0.55859 0.55859-0.55859 0.55859l-5.6016-6.7188v-0.55859l5.6016-6.1602c0-0.55859 0.55859 0 0.55859 0.55859zm30.238 5.043c-1.1211 0.55859-2.2383 1.1211-3.3594 1.1211h-14.559c-2.8008 0-5.0391-2.2383-5.0391-4.4805v-16.238c0-2.8008 2.2383-4.4805 5.0391-4.4805h14.559c1.6797 0 2.8008 0.55859 3.9219 1.1211 2.8008 2.8008 8.9609 8.3984 8.9609 11.762-0.5625 3.3555-6.7227 8.9531-9.5234 11.195zm24.641 35.84-6.7188 5.6016h-0.55859l-6.1602-5.6016c-0.55859 0 0-0.55859 0.55859-0.55859h12.879v0.55859zm5.0391-11.762c0 2.8008-2.2383 5.0391-4.4805 5.0391h-16.238c-2.8008 0-4.4805-2.2383-4.4805-5.0391v-14.559c0-1.6797 0.55859-2.8008 1.1211-3.9219 2.8008-2.8008 8.3984-8.9609 11.762-8.9609 3.3594 0 8.3984 6.1602 11.199 8.9609 0.55859 1.1211 1.1211 2.2383 1.1211 3.3594zm28-27.441c0 2.8008-2.2383 4.4805-5.0391 4.4805h-14.559c-1.6797 0-2.8008-0.55859-3.9219-1.1211-2.8008-2.8008-8.9609-8.3984-8.9609-11.762 0-3.3594 6.1602-8.3984 8.9609-11.199 1.1211-0.55859 2.2383-1.1211 3.3594-1.1211h14.559c2.8008 0 5.0391 2.2383 5.0391 4.4805l0.003906 16.242zm7.2812-2.2383c0 0.55859-0.55859 0-0.55859-0.55859v-12.879c0-0.55859 0.55859-0.55859 0.55859-0.55859l5.6016 6.7188v0.55859z"/>
  <path d="m283.36 234.08h134.96c7.8398 0 14-6.1602 14-14l-0.55859-80.078h-161.28l-1.1211 79.52c0 8.4023 6.1602 14.559 14 14.559z"/>
  <path d="m294 287.28c0 13.297-10.781 24.078-24.078 24.078-13.301 0-24.082-10.781-24.082-24.078 0-13.301 10.781-24.082 24.082-24.082 13.297 0 24.078 10.781 24.078 24.082"/>
  <path d="m577.36 229.6c-6.1602-36.961-17.359-59.922-27.441-74.48-8.3984-16.801-10.641-17.359-10.641-17.359-0.55859 0-1.6797-0.55859-2.2383-0.55859v-2.8008c0-1.6797-0.55859-3.3594-2.2383-3.9219-4.4805-2.2383-14.559-7.2812-29.68-7.2812-14 0-23.52 2.8008-28 3.9219-1.6797 0.55859-2.8008 2.2383-2.8008 3.9219v3.9219h-1.1211c-8.3984 0-11.199 5.0391-11.199 5.0391h-25.199l1.1211 83.441c0 8.3984-6.7188 15.121-14.559 15.121l-143.36-0.007812c-8.3984 0-14.559-6.7188-14.559-15.121l0.55859-83.438h-28s-2.8008-5.0391-11.199-5.0391v-3.9219c0-1.6797-1.1211-3.3594-2.8008-3.9219-4.4805-1.6797-14-3.9219-28-3.9219-15.121 0-25.762 5.0391-29.68 7.2812-1.6797 0.55859-2.2383 2.2383-2.2383 3.9219v2.2383c-1.1211 0-2.2383 0.55859-3.3594 0.55859 0 0-2.2383 0.55859-10.641 17.359-10.078 14.559-20.719 37.52-27.441 74.48-0.5625 0.56641-26.32 78.965-24.641 141.12s27.441 68.879 44.801 70.559 43.68-6.7188 59.359-43.68c15.68-36.961 23.52-68.879 34.16-70.559h1.6797c8.3984 7.8398 20.16 12.879 33.039 12.879 12.879 0 24.641-5.0391 33.039-12.879h22.961c0-1.1211 0.55859-5.6016 22.961-5.6016 21.281 0 23.52 4.4805 23.52 5.6016h24.641c8.3984 7.8398 20.16 12.879 33.039 12.879 12.879 0 24.078-5.0391 33.039-12.879 10.641 2.8008 17.922 34.719 33.602 70.559 15.68 36.961 41.441 45.359 59.359 43.68 17.359-1.6797 43.121-8.3984 44.801-70.559 1.1211-62.16-24.641-140.56-24.641-140.56zm-336.56-69.441c0-4.4805 3.3594-7.8398 7.8398-7.8398s7.8398 3.3594 7.8398 7.8398v12.879c0 4.4805-3.3594 7.8398-7.8398 7.8398s-7.8398-3.3594-7.8398-7.8398zm-107.52 272.72c-30.238-7.2812-28-66.078-27.441-66.078 0 0 0 28.559 38.078 36.398 38.078 7.8398 48.719-3.3594 51.52-7.8398-0.55859 0.5625-15.676 49.84-62.156 37.52zm137.76-99.117c-25.199 0-45.922-20.16-45.922-45.922 0-9.5195 2.8008-18.48 7.8398-25.762-10.641 9.5195-24.078 15.121-39.762 15.121-33.039 0-59.359-26.879-59.359-59.359 0-33.039 26.879-59.359 59.359-59.359 32.48 0 59.359 26.879 59.359 59.359 0 12.879-4.4805 25.199-11.199 34.719 7.8398-6.7188 17.922-10.641 29.121-10.641 25.199 0 45.922 20.16 45.922 45.922 0 25.762-20.16 45.922-45.359 45.922zm79.52-28c-8.3984 0-14.559-6.7188-14.559-14.559s6.7188-14.559 14.559-14.559 14.559 6.7188 14.559 14.559c0.003906 7.8359-6.1562 14.559-14.559 14.559zm95.203-145.6c0-4.4805 3.3594-7.8398 7.8398-7.8398 4.4805 0 7.8398 3.3594 7.8398 7.8398v12.879c0 4.4805-3.3594 7.8398-7.8398 7.8398-4.4805 0-7.8398-3.3594-7.8398-7.8398zm30.797 127.68c0 25.199-20.16 45.922-45.922 45.922-25.199 0-45.922-20.16-45.922-45.922 0-25.762 20.16-45.922 45.922-45.922 11.199 0 21.281 3.9219 29.121 10.641-7.2812-9.5195-11.199-21.84-11.199-34.719 0-33.039 26.879-59.359 59.359-59.359s59.359 26.879 59.359 59.359c0 33.039-26.879 59.359-59.359 59.359-15.121 0-29.121-5.6016-39.199-15.121 5.043 7.8438 7.8398 16.242 7.8398 25.762zm90.16 145.04c-46.48 12.32-61.602-37.52-61.602-37.52 2.2383 4.4805 13.441 16.238 51.52 7.8398 38.078-8.3984 38.078-36.398 38.078-36.398-0.55469 0 1.6836 58.801-27.996 66.078z"/>
  <path d="m270.48 251.44c-20.16 0-35.84 16.238-35.84 35.84s16.238 35.84 35.84 35.84c19.602 0 35.84-16.238 35.84-35.84s-16.242-35.84-35.84-35.84zm-0.55859 65.52c-16.238 0-29.68-13.441-29.68-29.68s13.441-29.68 29.68-29.68 29.68 13.441 29.68 29.68-12.883 29.68-29.68 29.68z"/>
  <path d="m430.64 251.44c-20.16 0-35.84 16.238-35.84 35.84s16.238 35.84 35.84 35.84c20.16 0 35.84-16.238 35.84-35.84s-16.242-35.84-35.84-35.84zm0 65.52c-16.238 0-29.68-13.441-29.68-29.68s13.441-29.68 29.68-29.68 29.68 13.441 29.68 29.68-13.441 29.68-29.68 29.68z"/>
  <path d="m454.16 287.28c0 13.297-10.781 24.078-24.082 24.078-13.297 0-24.078-10.781-24.078-24.078 0-13.301 10.781-24.082 24.078-24.082 13.301 0 24.082 10.781 24.082 24.082"/>
 </g>
</svg>
