<?xml version="1.0" encoding="UTF-8"?>
<svg width="700pt" height="700pt" version="1.1" viewBox="0 0 700 700" xmlns="http://www.w3.org/2000/svg" xmlns:xlink="http://www.w3.org/1999/xlink">
  <path d="m349.44 160.16c-15.68 0-29.121 12.879-29.121 29.121 0 16.238 12.879 29.121 29.121 29.121 16.238 0 29.121-12.879 29.121-29.121-0.003906-16.242-12.883-29.121-29.121-29.121zm0 48.719c-10.641 0-19.602-8.9609-19.602-19.602s8.9609-19.602 19.602-19.602 19.602 8.9609 19.602 19.602c-0.003907 10.645-8.4023 19.602-19.602 19.602z"/>
  <path d="m575.68 187.04c-1.1211-6.7188-2.2383-12.32-3.9219-17.922-6.1602-22.398-16.801-38.078-29.121-48.719 1.1211-2.2383 0-2.8008 0-2.8008-23.52-28-72.238-26.879-77.281-26.879-3.3594 0-3.9219 4.4805-3.9219 7.2812-1.6797 0-2.8008 0-3.3594 0.55859-8.3984 0.55859-27.441 22.961-45.922 30.801-18.48 7.8398-62.16 6.7188-62.16 6.7188h-1.1211s-43.121 1.1211-62.16-6.7188c-18.48-7.8398-37.52-30.238-45.922-30.801-0.55859 0-2.2383 0-4.4805-0.55859 0-3.3594-0.55859-7.2812-3.9219-7.2812-5.6016 0-53.762-1.1211-77.281 26.879 0 0-1.1211 1.1211 0.55859 3.9219-15.121 13.441-27.441 34.16-31.922 66.078v0.55859c-2.2227 10.082-42.543 182-17.902 229.61 0.55859 1.1211 1.1211 2.2383 2.2383 3.9219 0.55859 1.1211 1.1211 1.6797 1.6797 2.8008 0 0 0 0.55859 0.55859 0.55859 6.7188 10.078 14 16.238 22.398 19.039h0.55859c0.55859 0 1.1211 0.55859 2.2383 0.55859 0.55859 0 1.1211 0 1.6797 0.55859h1.6797 1.6797c24.641 1.6797 56.559-21.281 98.559-59.922 0 0 23.52-26.32 109.76-26.32h2.2383c86.238 0 109.76 26.32 109.76 26.32 39.199 35.84 69.441 58.238 93.52 59.922 7.2812 1.1211 14.559-1.1211 21.281-5.6016 5.0391-3.3594 9.5195-7.8398 14-14.559 0.55859-1.1211 1.1211-2.2383 2.2383-3.3594 0.55859-1.1211 1.6797-2.8008 2.2383-3.9219 25.211-49.277-18.469-230.72-18.469-230.72zm-418.88-2.2383c0-21.281 16.238-37.52 35.84-37.52 19.598 0 39.758 16.238 39.758 37.52s-17.922 37.52-37.52 37.52-38.078-16.242-38.078-37.52zm112 140.56c-26.32 0-47.602-21.281-47.602-47.602 0-26.32 21.281-47.602 47.602-47.602 26.32 0 47.602 21.281 47.602 47.602-0.003906 25.762-21.281 47.602-47.602 47.602zm110.32-119.84c-5.6016 10.078-16.801 17.359-29.68 17.359-12.32 0-22.398-6.1602-28.559-15.68 0 0-2.8008-5.0391-6.7188-5.0391h-22.398c-7.2812 0-13.441-6.1602-13.441-13.441s6.1602-13.441 13.441-13.441h21.281c4.4805 0 7.8398-4.4805 7.8398-4.4805 6.1602-9.5195 16.801-15.68 28.559-15.68 12.32 0 22.961 6.7188 29.121 16.238 0 0 2.2383 3.9219 6.7188 3.9219h21.84c7.2812 0 13.441 6.1602 13.441 13.441s-6.1602 13.441-13.441 13.441h-20.719c-5.6055 0-7.2852 3.3594-7.2852 3.3594zm43.68 109.2c-20.16 0-38.078-16.801-38.078-38.078 0-21.281 16.238-38.078 36.398-38.078s39.762 16.801 39.762 38.078c-0.003906 21.84-18.484 38.078-38.082 38.078zm38.641-109.76c-10.641 0-19.602-8.9609-19.602-19.602s8.9609-19.602 19.602-19.602 19.602 8.9609 19.602 19.602c-0.003907 11.199-8.9648 19.602-19.602 19.602zm40.879 40.32c-10.078 0-18.48-8.3984-18.48-18.48 0-10.078 8.3984-18.48 18.48-18.48 10.078 0 18.48 8.3984 18.48 18.48 0.55859 10.078-7.8398 18.48-18.48 18.48zm0-81.762c-10.641 0-19.039-8.3984-19.039-19.039s8.3984-19.039 19.039-19.039c10.641 0 19.039 8.3984 19.039 19.039s-8.3984 19.039-19.039 19.039zm39.758 39.762c-10.078 0-17.922-7.8398-17.922-17.922 0-10.078 7.8398-17.922 17.922-17.922 10.078 0 17.922 7.8398 17.922 17.922s-7.8398 17.922-17.922 17.922z"/>
  <path d="m297.36 178.08h-3.9219c-5.6016 0-10.641 4.4805-10.641 10.078 0 5.6016 4.4805 10.078 10.641 10.078h3.9219c5.6016 0 10.641-4.4805 10.641-10.078-0.55859-5.0352-5.0391-10.078-10.641-10.078z"/>
  <path d="m401.52 198.8h3.9219c5.6016 0 10.641-4.4805 10.641-10.078 0-5.6016-4.4805-10.078-10.641-10.078h-3.9219c-5.6016 0-10.641 4.4805-10.641 10.078s5.043 10.078 10.641 10.078z"/>
  <path d="m423.36 244.16c-18.48 0-33.602 15.121-33.602 33.602s15.121 33.602 33.602 33.602 33.602-15.121 33.602-33.602-15.121-33.602-33.602-33.602zm1.1211 56c-12.32 0-22.398-10.078-22.398-22.398 0-12.32 10.078-22.398 22.398-22.398 12.32 0 22.398 10.078 22.398 22.398 0 12.316-10.078 22.398-22.398 22.398z"/>
  <path d="m193.2 150.64c-17.922 0-32.48 14.559-32.48 32.48s14.559 32.48 32.48 32.48 32.48-14.559 32.48-32.48-14.559-32.48-32.48-32.48zm-2.8008 53.758c-11.762 0-21.281-9.5195-21.281-21.281 0-11.762 9.5195-21.281 21.281-21.281 11.762 0 21.281 9.5195 21.281 21.281 0 11.762-9.5195 21.281-21.281 21.281z"/>
  <path d="m287.28 257.6c-5.6016-6.7188-6.1602-17.922-6.1602-17.922s-11.762-5.0391-27.441 0.55859c0 0 2.2383 11.199-5.6016 16.801-7.2773 6.1602-17.359 6.1602-17.359 6.1602s-5.0391 12.879 0 28.559c0 0 11.762-1.1211 16.801 5.6016 5.6016 6.7188 6.1602 14 5.6016 17.359 0 0 13.441 6.7188 27.441 0.55859 0 0-2.2383-9.5195 4.4805-16.238 7.2812-6.7188 19.039-6.1602 19.039-6.1602s6.1602-16.238-0.55859-29.68c1.1172-0.55859-10.645 1.1211-16.242-5.5977z"/>
</svg>
