<?xml version="1.0" encoding="UTF-8"?>
<svg width="700pt" height="700pt" version="1.1" viewBox="0 0 700 700" xmlns="http://www.w3.org/2000/svg" xmlns:xlink="http://www.w3.org/1999/xlink">
 <g>
  <path d="m306.32 310.8c0 17.32-14.039 31.359-31.359 31.359-17.32 0-31.359-14.039-31.359-31.359 0-17.32 14.039-31.359 31.359-31.359 17.32 0 31.359 14.039 31.359 31.359"/>
  <path d="m459.76 310.8c0 17.32-14.043 31.359-31.363 31.359-17.316 0-31.359-14.039-31.359-31.359 0-17.32 14.043-31.359 31.359-31.359 17.32 0 31.363 14.039 31.363 31.359"/>
  <path d="m602 358.96s-10.641-81.762-20.16-133.28c-8.3984-45.922-38.078-59.359-38.078-59.359l-3.3633-27.441s-2.2383-6.1602-12.32-11.199c-0.55859-6.1602-5.0391-7.2812-5.0391-7.2812-22.961-7.8398-44.801-2.2383-50.398 0-3.9219 1.1211-4.4805 5.0391-5.0391 7.2812-10.641 5.6016-11.762 13.441-11.762 13.441l-3.9219 25.199h-85.117c-0.55859 0.55859-5.6016 4.4805-17.359 4.4805-11.762 0-16.238-3.9219-16.801-4.4805h-18.48v3.3594h-4.4805v-3.3594h-10.078v3.3594h-4.4805v-3.3594h-10.641v3.3594h-4.4805v-3.3594h-10.641v3.3594h-4.4805v-3.3594h-15.68l-3.9219-25.199s-1.6797-7.8398-13.441-13.441c-0.55859-6.1602-5.0391-7.2812-5.0391-7.2812-22.961-7.8398-44.801-2.2383-50.398 0-5.5977 2.2422-5.5977 8.9609-5.5977 8.9609v0.55859c-8.9609 4.4805-10.641 10.082-10.641 10.082l-3.3594 26.32s-27.441 12.879-37.52 62.16c-8.9609 44.238-21.281 128.8-21.281 128.8s-2.2383 46.48 36.398 57.68c38.641 11.199 56.559-12.879 61.602-20.16 5.0391-7.2812 34.719-56 34.719-56s0.55859-1.1211 1.6797-2.8008c8.9609 15.68 25.762 25.762 45.359 25.762 22.961 0 42.559-14.559 49.281-34.16h22.398 26.879c7.2812 20.16 26.32 34.16 49.281 34.16 17.922 0 33.602-8.9609 43.121-22.398 4.4805 7.2812 30.238 47.602 34.719 54.32 5.0391 7.2812 22.961 30.801 61.602 20.16 38.641-10.645 36.961-54.883 36.961-54.883zm-400.4-40.883c-44.238 0-80.078-35.84-80.078-80.078s35.84-80.078 80.078-80.078c44.238 0 80.078 35.84 80.078 80.078 0 7.8398-1.1211 15.68-3.3594 23.52h-2.2383-2.2383c2.2383-7.2812 3.3594-14.559 3.3594-22.398 0.55859-42.562-33.602-76.723-75.602-76.723s-75.602 34.16-75.602 75.602c0 42 33.602 76.16 75.602 76.16 8.3984 0 16.801-1.6797 24.641-3.9219 0 1.1211 0 2.8008 0.55859 3.9219-7.8398 2.2383-16.242 3.918-25.199 3.918zm54.879-79.52v0.55859l-5.6016 6.1602c0 0.55859-0.55859 0-0.55859-0.55859v-12.879c0-0.55859 0.55859-0.55859 0.55859-0.55859zm-63.281 40.32c-2.2383 0-4.4805-2.2383-4.4805-4.4805v-12.879c0-1.1211 0.55859-2.2383 1.1211-3.3594 2.8008-2.8008 7.8398-7.8398 11.199-7.8398 3.3594 0 8.3984 5.0391 10.641 7.8398 0.55859 1.1211 1.1211 2.2383 1.1211 3.3594v12.879c0 2.8008-2.2383 4.4805-4.4805 4.4805zm14.562 9.5195-6.7188 5.6016h-0.55859l-6.1602-5.6016c-0.55859 0 0-0.55859 0.55859-0.55859h12.879c0-0.55859 0.55859 0 0 0.55859zm-25.762-38.078c-1.1211 0.55859-2.2383 1.1211-3.3594 1.1211h-12.879c-2.8008 0-4.4805-2.2383-4.4805-4.4805v-15.68c0-2.2383 2.2383-4.4805 4.4805-4.4805h12.879c1.1211 0 2.2383 0.55859 3.3594 1.1211 2.8008 2.8008 7.8398 7.8398 7.8398 11.199s-5.6016 8.957-7.8398 11.199zm18.48-22.398c-3.3594 0-8.3984-5.0391-10.641-7.8398-0.55859-1.1211-1.1211-2.2383-1.1211-3.3594v-12.879c0-2.8008 2.2383-4.4805 4.4805-4.4805h15.68c2.2383 0 4.4805 2.2383 4.4805 4.4805v12.879c0 1.1211-0.55859 2.2383-1.1211 3.3594-2.7969 2.7969-8.3984 7.8398-11.758 7.8398zm-6.7188-36.961 6.7188-5.6016h0.55859l6.1602 5.6016c0.55859 0 0 0.55859-0.55859 0.55859h-12.879c-0.5625 0.55859-0.5625 0 0-0.55859zm-41.441 42.559v12.879c0 0.55859-0.55859 0.55859-0.55859 0.55859l-5.6016-6.7188v-0.55859l5.6016-6.1602c0-0.55859 0.55859-0.55859 0.55859 0zm70.559 17.922c-1.1211 0-2.2383-0.55859-3.3594-1.1211-2.8008-2.8008-7.8398-7.8398-7.8398-11.199s5.0391-8.3984 7.8398-10.641c1.1211-0.55859 2.2383-1.1211 3.3594-1.1211h12.879c2.8008 0 4.4805 2.2383 4.4805 4.4805v15.68c0 2.2383-2.2383 4.4805-4.4805 4.4805h-12.879zm52.641 95.758c-21.84 0-39.199-16.801-39.199-37.52s17.359-37.52 39.199-37.52c21.84 0 39.199 16.801 39.199 37.52s-17.918 37.52-39.199 37.52zm48.16-106.4c0 2.8008-2.2383 5.0391-5.0391 5.0391h-14.559c-2.8008 0-5.0391-2.2383-5.0391-5.0391v-6.1602c0-2.8008 2.2383-5.0391 5.0391-5.0391h14.559c2.8008 0 5.0391 2.2383 5.0391 5.0391zm27.441 48.719c-9.5195 0-17.359-7.8398-17.359-17.359 0-9.5195 7.8398-17.359 17.359-17.359 9.5195 0 17.359 7.8398 17.359 17.359 0 9.5195-7.2812 17.359-17.359 17.359zm26.32-48.16v-6.7188c0-2.8008 2.8008-5.0391 5.6016-5.0391l16.238 3.9219s6.1602 1.1211 6.1602 5.6016-6.1602 5.0391-6.1602 5.0391l-15.68 2.2344c-3.3633 0-6.1602-2.2383-6.1602-5.0391zm50.398 105.84c-21.84 0-39.199-16.801-39.199-37.52s17.359-37.52 39.199-37.52 39.199 16.801 39.199 37.52-17.918 37.52-39.199 37.52zm30.238-91.84c-9.5195 0-17.359-7.8398-17.359-17.359s7.8398-17.359 17.359-17.359 17.359 7.8398 17.359 17.359c0.003906 9.5195-7.8359 17.359-17.359 17.359zm41.441 62.719c-7.8398 0-15.68-1.1211-22.961-3.3594 0-1.1211 0.55859-2.8008 0.55859-3.9219 7.2812 2.2383 14.559 3.3594 22.961 3.3594 42 0 75.602-34.16 75.602-75.602 0-42-34.16-75.602-75.602-75.602-42 0-75.602 34.16-75.602 75.602 0 7.8398 1.1211 15.121 3.3594 22.398h-3.9219c-2.2383-7.2812-3.3594-15.121-3.3594-22.961 0-44.238 35.84-80.078 80.078-80.078 44.238 0 80.078 35.84 80.078 80.078 0.007812 44.246-36.391 80.086-81.191 80.086zm1.1211-59.359c9.5195 0 17.359 7.8398 17.359 17.359s-7.8398 17.359-17.359 17.359-17.359-7.8398-17.359-17.359 7.8398-17.359 17.359-17.359zm-16.242-60.48c0-9.5195 7.8398-17.359 17.359-17.359 9.5195 0 17.359 7.8398 17.359 17.359s-7.8398 17.359-17.359 17.359c-9.5195 0.5625-17.359-7.2773-17.359-17.359zm40.32 38.641c0-9.5195 7.8398-17.359 17.359-17.359s17.359 7.8398 17.359 17.359c0 9.5195-7.8398 17.359-17.359 17.359s-17.359-7.8398-17.359-17.359z"/>
 </g>
</svg>
