<?xml version="1.0" encoding="UTF-8"?>
<svg width="700pt" height="700pt" version="1.1" viewBox="0 0 700 700" xmlns="http://www.w3.org/2000/svg" xmlns:xlink="http://www.w3.org/1999/xlink">
 <g>
  <path d="m262.64 254.24h178.08c3.3594 0 6.1602-2.8008 6.1602-6.1602v-159.04c0-3.3594-2.8008-6.1602-6.1602-6.1602h-178.08c-3.3594 0-6.1602 2.8008-6.1602 6.1602v158.48c-0.55859 3.9219 2.2383 6.7188 6.1602 6.7188z"/>
  <path d="m268.8 365.68c0 4.6406-3.7617 8.3984-8.4023 8.3984-4.6367 0-8.3984-3.7578-8.3984-8.3984 0-4.6406 3.7617-8.3984 8.3984-8.3984 4.6406 0 8.4023 3.7578 8.4023 8.3984"/>
  <path d="m490.56 31.359h-236.32s-0.55859-2.8008-5.0391-2.8008c-5.0391-0.55859-5.5977 2.8008-5.5977 2.8008h-35.281c-7.2812 0-13.441 6.1602-13.441 13.441v474.32c0 7.2812 6.1602 13.441 13.441 13.441h238.56c31.359 0 56.559-25.199 56.559-56.559l0.003906-431.77c0.55859-7.2773-5.6016-12.879-12.883-12.879zm-226.8 1.1211v-1.1211h2.2383v5.043c0 0.55859-0.55859 1.1211-1.1211 1.1211-0.55859 0-1.1211-0.55859-1.1211-1.1211zm1.1172 12.32c1.1211 0 2.2383 1.1211 2.2383 2.2383 0.003906 1.1211-1.1172 2.2422-2.2383 2.2422s-2.2383-1.1211-2.2383-2.2383c0-1.1211 1.1211-2.2422 2.2383-2.2422zm-17.359-13.441h2.2383v5.0391c0 0.55859-0.55859 1.1211-1.1211 1.1211-0.55859 0-1.1211-0.55859-1.1211-1.1211zm1.1211 13.441c1.1211 0 2.2383 1.1211 2.2383 2.2383 0 1.1211-1.1211 2.2383-2.2383 2.2383-1.1211 0-2.2383-1.1211-2.2383-2.2383-0.003906-1.1172 1.1172-2.2383 2.2383-2.2383zm-37.52 324.8c-1.6797 0-2.8008-1.1211-2.8008-2.8008 0-1.6797 1.1211-2.8008 2.8008-2.8008 1.6797 0 2.8008 1.1211 2.8008 2.8008 0 1.6797-1.1211 2.8008-2.8008 2.8008zm2.8008-95.762v-203.84c0-7.2812 5.6016-12.879 12.879-12.879h243.04c7.2812 0 12.879 5.6016 12.879 12.879v188.16c0 15.68-12.879 28.559-28.559 28.559h-227.36c-6.7227 0-12.879-5.5977-12.879-12.879zm49.277 43.68c0 1.6797-1.1211 2.8008-2.8008 2.8008-1.6797 0-2.8008-1.1211-2.8008-2.8008 0-1.6797 1.1211-2.8008 2.8008-2.8008 1.6797 0.5625 2.8008 1.6797 2.8008 2.8008zm-2.8008 101.36c-1.6797 0-2.8008-1.1211-2.8008-2.8008s1.1211-2.8008 2.8008-2.8008c1.6797 0 2.8008 1.1211 2.8008 2.8008 0 1.6836-1.1211 2.8008-2.8008 2.8008zm36.961-44.238c0 2.2383-1.6797 4.4805-4.4805 4.4805h-21.281v21.281c0 2.2383-1.6797 4.4805-4.4805 4.4805h-16.238c-2.2383 0-4.4805-1.6797-4.4805-4.4805v-21.281h-20.16c-2.2383 0-4.4805-1.6797-4.4805-4.4805l0.003907-16.242c0-2.2383 1.6797-4.4805 4.4805-4.4805h20.16v-21.281c0-2.2383 1.6797-4.4805 4.4805-4.4805h16.238c2.2383 0 4.4805 1.6797 4.4805 4.4805v21.281h21.281c2.2383 0 4.4805 1.6797 4.4805 4.4805zm12.879-5.0391c-1.6797 0-2.8008-1.1211-2.8008-2.8008 0-1.6797 1.1211-2.8008 2.8008-2.8008 1.6797 0 2.8008 1.1211 2.8008 2.8008-0.55859 1.6797-1.6797 2.8008-2.8008 2.8008zm34.16 84.559c0 2.2383-1.6797 4.4805-4.4805 4.4805h-23.52c-2.2383 0-4.4805-1.6797-4.4805-4.4805v-1.6797c0-2.2383 1.6797-4.4805 4.4805-4.4805h23.52c2.2383 0 4.4805 1.6797 4.4805 4.4805zm45.922 0c0 2.2383-1.6797 4.4805-4.4805 4.4805h-23.52c-2.2383 0-4.4805-1.6797-4.4805-4.4805v-1.6797c0-2.2383 1.6797-4.4805 4.4805-4.4805h23.52c2.2383 0 4.4805 1.6797 4.4805 4.4805zm14.559-58.238c-10.641 0-19.039-8.3984-19.039-19.039 0-10.641 8.3984-19.039 19.039-19.039s19.039 8.3984 19.039 19.039c0.003906 10.637-8.3984 19.039-19.039 19.039zm24.641 116.48c-1.6797 0-2.8008-1.1211-2.8008-2.8008 0-1.6797 1.1211-2.8008 2.8008-2.8008 1.6797 0 2.8008 1.1211 2.8008 2.8008 0 1.6836-1.1211 2.8008-2.8008 2.8008zm0-8.957c-1.6797 0-2.8008-1.1211-2.8008-2.8008s1.1211-2.8008 2.8008-2.8008c1.6797 0 2.8008 1.1211 2.8008 2.8008s-1.1211 2.8008-2.8008 2.8008zm0-9.5195c-1.6797 0-2.8008-1.1211-2.8008-2.8008 0-1.6797 1.1211-2.8008 2.8008-2.8008 1.6797 0 2.8008 1.1211 2.8008 2.8008 0 1.6797-1.1211 2.8008-2.8008 2.8008zm0-8.9609c-1.6797 0-2.8008-1.1211-2.8008-2.8008 0-1.6797 1.1211-2.8008 2.8008-2.8008 1.6797 0 2.8008 1.1211 2.8008 2.8008 0 1.6797-1.1211 2.8008-2.8008 2.8008zm0-9.5195c-1.6797 0-2.8008-1.1211-2.8008-2.8008s1.1211-2.8008 2.8008-2.8008c1.6797 0 2.8008 1.1211 2.8008 2.8008s-1.1211 2.8008-2.8008 2.8008zm9.5195 36.957c-1.6797 0-2.8008-1.1211-2.8008-2.8008 0-1.6797 1.1211-2.8008 2.8008-2.8008 1.6797 0 2.8008 1.1211 2.8008 2.8008 0 1.6836-1.6797 2.8008-2.8008 2.8008zm0-8.957c-1.6797 0-2.8008-1.1211-2.8008-2.8008s1.1211-2.8008 2.8008-2.8008c1.6797 0 2.8008 1.1211 2.8008 2.8008s-1.6797 2.8008-2.8008 2.8008zm0-9.5195c-1.6797 0-2.8008-1.1211-2.8008-2.8008 0-1.6797 1.1211-2.8008 2.8008-2.8008 1.6797 0 2.8008 1.1211 2.8008 2.8008 0 1.6797-1.6797 2.8008-2.8008 2.8008zm0-8.9609c-1.6797 0-2.8008-1.1211-2.8008-2.8008 0-1.6797 1.1211-2.8008 2.8008-2.8008 1.6797 0 2.8008 1.1211 2.8008 2.8008 0 1.6797-1.6797 2.8008-2.8008 2.8008zm0-9.5195c-1.6797 0-2.8008-1.1211-2.8008-2.8008s1.1211-2.8008 2.8008-2.8008c1.6797 0 2.8008 1.1211 2.8008 2.8008s-1.6797 2.8008-2.8008 2.8008zm0-8.9609c-1.6797 0-2.8008-1.1211-2.8008-2.8008 0-1.6797 1.1211-2.8008 2.8008-2.8008 1.6797 0 2.8008 1.1211 2.8008 2.8008 0 1.1211-1.6797 2.8008-2.8008 2.8008zm5.6016-12.32c0-1.6797 1.1211-2.8008 2.8008-2.8008 1.6797 0 2.8008 1.1211 2.8008 2.8008 0 1.6797-1.1211 2.8008-2.8008 2.8008-1.6797 0-2.8008-1.1211-2.8008-2.8008zm3.3594 58.238c-1.6797 0-2.8008-1.1211-2.8008-2.8008 0-1.6797 1.1211-2.8008 2.8008-2.8008s2.8008 1.1211 2.8008 2.8008c0 1.6836-1.1211 2.8008-2.8008 2.8008zm0-8.957c-1.6797 0-2.8008-1.1211-2.8008-2.8008s1.1211-2.8008 2.8008-2.8008 2.8008 1.1211 2.8008 2.8008-1.1211 2.8008-2.8008 2.8008zm0-9.5195c-1.6797 0-2.8008-1.1211-2.8008-2.8008 0-1.6797 1.1211-2.8008 2.8008-2.8008s2.8008 1.1211 2.8008 2.8008c0 1.6797-1.1211 2.8008-2.8008 2.8008zm0-8.9609c-1.6797 0-2.8008-1.1211-2.8008-2.8008 0-1.6797 1.1211-2.8008 2.8008-2.8008s2.8008 1.1211 2.8008 2.8008c0 1.6797-1.1211 2.8008-2.8008 2.8008zm0-9.5195c-1.6797 0-2.8008-1.1211-2.8008-2.8008s1.1211-2.8008 2.8008-2.8008 2.8008 1.1211 2.8008 2.8008-1.1211 2.8008-2.8008 2.8008zm0-8.9609c-1.6797 0-2.8008-1.1211-2.8008-2.8008 0-1.6797 1.1211-2.8008 2.8008-2.8008s2.8008 1.1211 2.8008 2.8008c0 1.1211-1.1211 2.8008-2.8008 2.8008zm5.6016-12.32c0-1.6797 1.1211-2.8008 2.8008-2.8008 1.6797 0 2.8008 1.1211 2.8008 2.8008 0 1.6797-1.1211 2.8008-2.8008 2.8008-1.6836 0-2.8008-1.1211-2.8008-2.8008zm3.918 58.238c-1.6797 0-2.8008-1.1211-2.8008-2.8008 0-1.6797 1.1211-2.8008 2.8008-2.8008 1.6797 0 2.8008 1.1211 2.8008 2.8008 0 1.6836-1.1211 2.8008-2.8008 2.8008zm0-8.957c-1.6797 0-2.8008-1.1211-2.8008-2.8008s1.1211-2.8008 2.8008-2.8008c1.6797 0 2.8008 1.1211 2.8008 2.8008s-1.1211 2.8008-2.8008 2.8008zm0-9.5195c-1.6797 0-2.8008-1.1211-2.8008-2.8008 0-1.6797 1.1211-2.8008 2.8008-2.8008 1.6797 0 2.8008 1.1211 2.8008 2.8008 0 1.6797-1.1211 2.8008-2.8008 2.8008zm0-8.9609c-1.6797 0-2.8008-1.1211-2.8008-2.8008 0-1.6797 1.1211-2.8008 2.8008-2.8008 1.6797 0 2.8008 1.1211 2.8008 2.8008 0 1.6797-1.1211 2.8008-2.8008 2.8008zm0-9.5195c-1.6797 0-2.8008-1.1211-2.8008-2.8008s1.1211-2.8008 2.8008-2.8008c1.6797 0 2.8008 1.1211 2.8008 2.8008s-1.1211 2.8008-2.8008 2.8008zm0-8.9609c-1.6797 0-2.8008-1.1211-2.8008-2.8008 0-1.6797 1.1211-2.8008 2.8008-2.8008 1.6797 0 2.8008 1.1211 2.8008 2.8008 0 1.1211-1.1211 2.8008-2.8008 2.8008zm5.6016-12.32c0-1.6797 1.1211-2.8008 2.8008-2.8008s2.8008 1.1211 2.8008 2.8008c0 1.6797-1.1211 2.8008-2.8008 2.8008-1.6836 0-2.8008-1.1211-2.8008-2.8008zm3.918 58.238c-1.6797 0-2.8008-1.1211-2.8008-2.8008 0-1.6797 1.1211-2.8008 2.8008-2.8008 1.6797 0 2.8008 1.1211 2.8008 2.8008-0.55859 1.6836-1.6797 2.8008-2.8008 2.8008zm0-8.957c-1.6797 0-2.8008-1.1211-2.8008-2.8008s1.1211-2.8008 2.8008-2.8008c1.6797 0 2.8008 1.1211 2.8008 2.8008-0.55859 1.6797-1.6797 2.8008-2.8008 2.8008zm0-9.5195c-1.6797 0-2.8008-1.1211-2.8008-2.8008 0-1.6797 1.1211-2.8008 2.8008-2.8008 1.6797 0 2.8008 1.1211 2.8008 2.8008-0.55859 1.6797-1.6797 2.8008-2.8008 2.8008zm0-8.9609c-1.6797 0-2.8008-1.1211-2.8008-2.8008 0-1.6797 1.1211-2.8008 2.8008-2.8008 1.6797 0 2.8008 1.1211 2.8008 2.8008-0.55859 1.6797-1.6797 2.8008-2.8008 2.8008zm0-9.5195c-1.6797 0-2.8008-1.1211-2.8008-2.8008s1.1211-2.8008 2.8008-2.8008c1.6797 0 2.8008 1.1211 2.8008 2.8008-0.55859 1.6797-1.6797 2.8008-2.8008 2.8008zm0-8.9609c-1.6797 0-2.8008-1.1211-2.8008-2.8008 0-1.6797 1.1211-2.8008 2.8008-2.8008 1.6797 0 2.8008 1.1211 2.8008 2.8008-0.55859 1.1211-1.6797 2.8008-2.8008 2.8008zm5.0391-12.32c0-1.6797 1.1211-2.8008 2.8008-2.8008 1.6797 0 2.8008 1.1211 2.8008 2.8008 0 1.6797-1.1211 2.8008-2.8008 2.8008-1.6797 0-2.8008-1.1211-2.8008-2.8008zm3.9219 49.281c-1.6797 0-2.8008-1.1211-2.8008-2.8008s1.1211-2.8008 2.8008-2.8008 2.8008 1.1211 2.8008 2.8008-1.1211 2.8008-2.8008 2.8008zm0-9.5195c-1.6797 0-2.8008-1.1211-2.8008-2.8008 0-1.6797 1.1211-2.8008 2.8008-2.8008s2.8008 1.1211 2.8008 2.8008c0 1.6797-1.1211 2.8008-2.8008 2.8008zm0-8.9609c-1.6797 0-2.8008-1.1211-2.8008-2.8008 0-1.6797 1.1211-2.8008 2.8008-2.8008s2.8008 1.1211 2.8008 2.8008c0 1.6797-1.1211 2.8008-2.8008 2.8008zm0-9.5195c-1.6797 0-2.8008-1.1211-2.8008-2.8008s1.1211-2.8008 2.8008-2.8008 2.8008 1.1211 2.8008 2.8008-1.1211 2.8008-2.8008 2.8008zm0-8.9609c-1.6797 0-2.8008-1.1211-2.8008-2.8008 0-1.6797 1.1211-2.8008 2.8008-2.8008s2.8008 1.1211 2.8008 2.8008c0 1.1211-1.1211 2.8008-2.8008 2.8008zm-14-89.602c-10.641 0-19.039-8.3984-19.039-19.039s8.3984-19.039 19.039-19.039 19.039 8.3984 19.039 19.039-8.3984 19.039-19.039 19.039zm19.602 77.281c0-1.6797 1.1211-2.8008 2.8008-2.8008 1.6797 0 2.8008 1.1211 2.8008 2.8008 0 1.6797-1.1211 2.8008-2.8008 2.8008-1.6836 0-2.8008-1.1211-2.8008-2.8008zm3.918 39.762c-1.6797 0-2.8008-1.1211-2.8008-2.8008 0-1.6797 1.1211-2.8008 2.8008-2.8008 1.6797 0 2.8008 1.1211 2.8008 2.8008-0.55859 1.6797-1.6797 2.8008-2.8008 2.8008zm0-8.9609c-1.6797 0-2.8008-1.1211-2.8008-2.8008 0-1.6797 1.1211-2.8008 2.8008-2.8008 1.6797 0 2.8008 1.1211 2.8008 2.8008-0.55859 1.6797-1.6797 2.8008-2.8008 2.8008zm0-9.5195c-1.6797 0-2.8008-1.1211-2.8008-2.8008s1.1211-2.8008 2.8008-2.8008c1.6797 0 2.8008 1.1211 2.8008 2.8008-0.55859 1.6797-1.6797 2.8008-2.8008 2.8008zm0-8.9609c-1.6797 0-2.8008-1.1211-2.8008-2.8008 0-1.6797 1.1211-2.8008 2.8008-2.8008 1.6797 0 2.8008 1.1211 2.8008 2.8008-0.55859 1.1211-1.6797 2.8008-2.8008 2.8008z"/>
  <path d="m226.8 117.04c0 5.2266-7.8398 5.2266-7.8398 0 0-5.2266 7.8398-5.2266 7.8398 0"/>
  <path d="m232.4 117.04c0-2.2383-1.6797-3.9219-3.9219-3.9219 0 0 2.2383 2.2383 2.2383 3.9219 0 1.6797-2.2383 3.9219-2.2383 3.9219 2.2422 0 3.9219-1.6797 3.9219-3.9219z"/>
  <path d="m238.56 117.04c0-2.2383-1.6797-3.9219-3.9219-3.9219 0 0 2.2383 2.2383 2.2383 3.9219 0 1.6797-2.2383 3.9219-2.2383 3.9219 2.2422 0 3.9219-1.6797 3.9219-3.9219z"/>
  <path d="m244.16 117.04c0-2.2383-1.6797-3.9219-3.9219-3.9219 0 0 2.2383 2.2383 2.2383 3.9219 0 1.6797-2.2383 3.9219-2.2383 3.9219 2.2422 0 3.9219-1.6797 3.9219-3.9219z"/>
 </g>
</svg>
