<?xml version="1.0" encoding="UTF-8"?>
<svg width="700pt" height="700pt" version="1.1" viewBox="0 0 700 700" xmlns="http://www.w3.org/2000/svg" xmlns:xlink="http://www.w3.org/1999/xlink">
 <defs>
  <symbol id="u" overflow="visible">
   <path d="m0.5625-0.046875c-0.023438 0.023438-0.054688 0.039062-0.09375 0.046875-0.03125 0.0078125-0.0625 0.015625-0.09375 0.015625-0.10547 0-0.1875-0.023438-0.25-0.078125-0.054688-0.0625-0.078125-0.14062-0.078125-0.23438 0-0.10156 0.023438-0.17969 0.078125-0.23438 0.0625-0.0625 0.14453-0.09375 0.25-0.09375 0.03125 0 0.0625 0.007812 0.09375 0.015625 0.039062 0 0.070312 0.011719 0.09375 0.03125v0.125c-0.023438-0.019531-0.046875-0.035156-0.078125-0.046875-0.03125-0.007812-0.070313-0.015625-0.10938-0.015625-0.054688 0-0.09375 0.023437-0.125 0.0625-0.03125 0.03125-0.046875 0.085937-0.046875 0.15625 0 0.0625 0.015625 0.10938 0.046875 0.14062s0.070312 0.046875 0.125 0.046875h0.10938c0.03125-0.007813 0.054687-0.023437 0.078125-0.046875z"/>
  </symbol>
  <symbol id="d" overflow="visible">
   <path d="m0.40625-0.32812c-0.011719-0.007813-0.023438-0.015625-0.03125-0.015625-0.011719-0.007812-0.023438-0.015625-0.03125-0.015625-0.042969 0-0.074219 0.015625-0.09375 0.046875-0.023438 0.023438-0.03125 0.058594-0.03125 0.10938v0.20312h-0.15625v-0.46875h0.15625v0.09375c0.019531-0.039062 0.039062-0.066406 0.0625-0.078125 0.019531-0.007813 0.050781-0.015625 0.09375-0.015625h0.03125z"/>
  </symbol>
  <symbol id="a" overflow="visible">
   <path d="m0.53125-0.23438v0.046875h-0.34375c0.007812 0.042969 0.019531 0.070312 0.03125 0.078125 0.019531 0.011719 0.050781 0.015625 0.09375 0.015625 0.03125 0 0.0625-0.0039062 0.09375-0.015625 0.039062-0.007813 0.078125-0.019531 0.10938-0.03125v0.10938c-0.03125 0.011719-0.070313 0.023438-0.10938 0.03125-0.03125 0.0078125-0.070312 0.015625-0.10938 0.015625-0.085937 0-0.14844-0.019531-0.1875-0.0625-0.042969-0.050781-0.0625-0.10938-0.0625-0.17188 0-0.082031 0.019531-0.14453 0.0625-0.1875 0.039063-0.039062 0.10156-0.0625 0.1875-0.0625 0.0625 0 0.11328 0.023438 0.15625 0.0625 0.050781 0.042969 0.078125 0.10156 0.078125 0.17188zm-0.15625-0.046875c0-0.03125-0.011719-0.050781-0.03125-0.0625-0.011719-0.019531-0.027344-0.03125-0.046875-0.03125-0.03125 0-0.058594 0.011719-0.078125 0.03125-0.011719 0.011719-0.023438 0.03125-0.03125 0.0625z"/>
  </symbol>
  <symbol id="f" overflow="visible">
   <path d="m0.28125-0.20312c-0.03125 0-0.058594 0.007813-0.078125 0.015625-0.011719 0.011719-0.015625 0.027344-0.015625 0.046875 0 0.011719 0.003906 0.023437 0.015625 0.03125 0.007813 0.011719 0.023437 0.015625 0.046875 0.015625 0.03125 0 0.054688-0.0039062 0.078125-0.015625 0.019531-0.019531 0.03125-0.046875 0.03125-0.078125v-0.015625zm0.21875-0.0625v0.26562h-0.14062v-0.0625c-0.023437 0.023438-0.046875 0.042969-0.078125 0.0625-0.023438 0.0078125-0.046875 0.015625-0.078125 0.015625-0.054687 0-0.09375-0.011719-0.125-0.03125-0.023438-0.03125-0.03125-0.070312-0.03125-0.125 0-0.050781 0.015625-0.085937 0.046875-0.10938 0.03125-0.03125 0.085938-0.046875 0.17188-0.046875h0.09375c0-0.03125-0.011719-0.050781-0.03125-0.0625-0.023437-0.007813-0.054687-0.015625-0.09375-0.015625-0.023437 0-0.046875 0.007812-0.078125 0.015625-0.03125 0-0.058594 0.007813-0.078125 0.015625v-0.10938c0.03125-0.007813 0.0625-0.015625 0.09375-0.015625h0.09375c0.082031 0 0.14062 0.015625 0.17188 0.046875 0.039062 0.03125 0.0625 0.085937 0.0625 0.15625z"/>
  </symbol>
  <symbol id="c" overflow="visible">
   <path d="m0.23438-0.59375v0.125h0.14062v0.10938h-0.14062v0.20312c0 0.023438 0.003906 0.039062 0.015625 0.046875h0.046875 0.078125v0.10938h-0.125c-0.0625 0-0.10938-0.0078125-0.14062-0.03125-0.023438-0.03125-0.03125-0.070312-0.03125-0.125v-0.20312h-0.0625v-0.10938h0.0625v-0.125z"/>
  </symbol>
  <symbol id="j" overflow="visible">
   <path d="m0.375-0.39062v-0.25h0.15625v0.64062h-0.15625v-0.0625c-0.011719 0.023438-0.03125 0.042969-0.0625 0.0625-0.023438 0.0078125-0.046875 0.015625-0.078125 0.015625-0.0625 0-0.10938-0.019531-0.14062-0.0625-0.03125-0.050781-0.046875-0.10938-0.046875-0.17188 0-0.082031 0.015625-0.14453 0.046875-0.1875 0.03125-0.039062 0.078125-0.0625 0.14062-0.0625 0.03125 0 0.054687 0.007812 0.078125 0.015625 0.03125 0.011719 0.050781 0.03125 0.0625 0.0625zm-0.078125 0.29688c0.019531 0 0.035156-0.007812 0.046875-0.03125 0.019531-0.019531 0.03125-0.050781 0.03125-0.09375 0-0.050781-0.011719-0.085938-0.03125-0.10938-0.011719-0.03125-0.027344-0.046875-0.046875-0.046875-0.042969 0-0.074219 0.015625-0.09375 0.046875-0.011719 0.023437-0.015625 0.058594-0.015625 0.10938 0 0.042969 0.003906 0.074219 0.015625 0.09375 0.019531 0.023438 0.050781 0.03125 0.09375 0.03125z"/>
  </symbol>
  <symbol id="i" overflow="visible">
   <path d="m0.3125-0.09375c0.039062 0 0.066406-0.007812 0.078125-0.03125 0.007813-0.019531 0.015625-0.050781 0.015625-0.09375 0-0.050781-0.007812-0.085938-0.015625-0.10938-0.011719-0.03125-0.039063-0.046875-0.078125-0.046875-0.03125 0-0.058594 0.015625-0.078125 0.046875-0.011719 0.023437-0.015625 0.058594-0.015625 0.10938 0 0.03125 0.003906 0.0625 0.015625 0.09375 0.019531 0.023438 0.046875 0.03125 0.078125 0.03125zm-0.09375-0.29688c0.019531-0.03125 0.039062-0.050781 0.0625-0.0625 0.03125-0.007813 0.0625-0.015625 0.09375-0.015625 0.0625 0 0.10938 0.023438 0.14062 0.0625 0.03125 0.042969 0.046875 0.10547 0.046875 0.1875 0 0.0625-0.015625 0.12109-0.046875 0.17188-0.03125 0.042969-0.078125 0.0625-0.14062 0.0625-0.03125 0-0.0625-0.0078125-0.09375-0.015625-0.023438-0.019531-0.042969-0.039062-0.0625-0.0625v0.0625h-0.15625v-0.64062h0.15625z"/>
  </symbol>
  <symbol id="h" overflow="visible">
   <path d="m0.015625-0.46875h0.14062l0.125 0.32812 0.09375-0.32812h0.17188l-0.20312 0.51562c-0.023438 0.050781-0.046875 0.085937-0.078125 0.10938-0.023437 0.019531-0.054687 0.03125-0.09375 0.03125h-0.09375v-0.10938h0.046875c0.03125 0 0.050781-0.0078125 0.0625-0.015625 0.007812 0 0.015625-0.011719 0.015625-0.03125v-0.015625z"/>
  </symbol>
  <symbol id="g" overflow="visible">
   <path d="m0.35938-0.51562c-0.042969 0-0.078125 0.023437-0.10938 0.0625-0.03125 0.03125-0.046875 0.085937-0.046875 0.15625 0 0.0625 0.015625 0.10938 0.046875 0.14062s0.066406 0.046875 0.10938 0.046875c0.050781 0 0.085937-0.015625 0.10938-0.046875 0.03125-0.03125 0.046875-0.078125 0.046875-0.14062 0-0.070313-0.015625-0.125-0.046875-0.15625-0.023438-0.039063-0.058594-0.0625-0.10938-0.0625zm0-0.10938c0.09375 0 0.16406 0.027344 0.21875 0.078125 0.0625 0.054687 0.09375 0.13672 0.09375 0.25 0 0.09375-0.03125 0.17188-0.09375 0.23438-0.054687 0.054688-0.125 0.078125-0.21875 0.078125-0.10547 0-0.18359-0.023438-0.23438-0.078125-0.054688-0.0625-0.078125-0.14062-0.078125-0.23438 0-0.11328 0.023438-0.19531 0.078125-0.25 0.050781-0.050781 0.12891-0.078125 0.23438-0.078125z"/>
  </symbol>
  <symbol id="t" overflow="visible">
   <path d="m0.0625-0.64062h0.15625v0.34375l0.15625-0.17188h0.17188l-0.21875 0.21875 0.25 0.25h-0.1875l-0.17188-0.20312v0.20312h-0.15625z"/>
  </symbol>
  <symbol id="b" overflow="visible">
   <path d="m0.54688-0.28125v0.28125h-0.17188v-0.20312-0.09375-0.03125c0-0.007813-0.007812-0.015625-0.015625-0.015625-0.011719-0.007812-0.027344-0.015625-0.046875-0.015625-0.023438 0-0.042969 0.011719-0.0625 0.03125-0.023438 0.023437-0.03125 0.058594-0.03125 0.10938v0.21875h-0.15625v-0.46875h0.15625v0.078125c0.019531-0.03125 0.039062-0.050781 0.0625-0.0625 0.03125-0.007813 0.0625-0.015625 0.09375-0.015625 0.050781 0 0.09375 0.015625 0.125 0.046875s0.046875 0.078125 0.046875 0.14062z"/>
  </symbol>
  <symbol id="s" overflow="visible">
   <path d="m0.32812-0.375c0.019531 0 0.035156-0.003906 0.046875-0.015625 0.007812-0.007813 0.015625-0.03125 0.015625-0.0625 0-0.007813-0.007813-0.019531-0.015625-0.03125-0.011719-0.007813-0.027344-0.015625-0.046875-0.015625h-0.09375v0.125zm0 0.26562c0.03125 0 0.050781-0.003906 0.0625-0.015625 0.019531-0.007812 0.03125-0.03125 0.03125-0.0625 0-0.019531-0.011719-0.035156-0.03125-0.046875-0.011719-0.019531-0.03125-0.03125-0.0625-0.03125h-0.09375v0.15625zm0.14062-0.21875c0.039062 0.011719 0.066406 0.03125 0.078125 0.0625 0.019531 0.023437 0.03125 0.054687 0.03125 0.09375 0 0.054687-0.023437 0.09375-0.0625 0.125-0.03125 0.03125-0.089844 0.046875-0.17188 0.046875h-0.26562v-0.625h0.23438c0.09375 0 0.15625 0.015625 0.1875 0.046875 0.03125 0.023437 0.046875 0.0625 0.046875 0.125 0 0.03125-0.007813 0.058594-0.015625 0.078125-0.011719 0.023438-0.03125 0.039062-0.0625 0.046875z"/>
  </symbol>
  <symbol id="r" overflow="visible">
   <path d="m0.375-0.64062v0.09375h-0.078125c-0.023437 0-0.039063 0.007813-0.046875 0.015625-0.011719 0-0.015625 0.015625-0.015625 0.046875v0.015625h0.14062v0.10938h-0.14062v0.35938h-0.14062v-0.35938h-0.078125v-0.10938h0.078125v-0.015625c0-0.050781 0.007812-0.085937 0.03125-0.10938 0.03125-0.03125 0.078125-0.046875 0.14062-0.046875z"/>
  </symbol>
  <symbol id="e" overflow="visible">
   <path d="m0.29688-0.375c-0.042969 0-0.074219 0.015625-0.09375 0.046875-0.011719 0.023437-0.015625 0.058594-0.015625 0.10938 0 0.042969 0.003906 0.074219 0.015625 0.09375 0.019531 0.023438 0.050781 0.03125 0.09375 0.03125 0.03125 0 0.050781-0.007812 0.0625-0.03125 0.019531-0.019531 0.03125-0.050781 0.03125-0.09375 0-0.050781-0.011719-0.085938-0.03125-0.10938-0.011719-0.03125-0.03125-0.046875-0.0625-0.046875zm0-0.09375c0.070313 0 0.12891 0.023438 0.17188 0.0625 0.050781 0.042969 0.078125 0.10547 0.078125 0.1875 0 0.0625-0.027344 0.12109-0.078125 0.17188-0.042969 0.042969-0.10156 0.0625-0.17188 0.0625-0.085937 0-0.14844-0.019531-0.1875-0.0625-0.042969-0.050781-0.0625-0.10938-0.0625-0.17188 0-0.082031 0.019531-0.14453 0.0625-0.1875 0.039063-0.039062 0.10156-0.0625 0.1875-0.0625z"/>
  </symbol>
  <symbol id="q" overflow="visible">
   <path d="m0.5-0.375c0.019531-0.03125 0.039062-0.050781 0.0625-0.0625 0.03125-0.019531 0.054688-0.03125 0.078125-0.03125 0.050781 0 0.09375 0.015625 0.125 0.046875s0.046875 0.078125 0.046875 0.14062v0.28125h-0.15625v-0.23438-0.015625-0.015625c0-0.03125-0.007812-0.050781-0.015625-0.0625-0.011719-0.019531-0.023437-0.03125-0.03125-0.03125-0.03125 0-0.058594 0.011719-0.078125 0.03125-0.011719 0.023437-0.015625 0.058594-0.015625 0.10938v0.21875h-0.14062v-0.23438c0-0.050781-0.007812-0.082031-0.015625-0.09375-0.011719-0.019531-0.03125-0.03125-0.0625-0.03125-0.023437 0-0.042969 0.011719-0.0625 0.03125-0.011719 0.023437-0.015625 0.058594-0.015625 0.10938v0.21875h-0.15625v-0.46875h0.15625v0.078125c0.019531-0.03125 0.039062-0.050781 0.0625-0.0625 0.019531-0.007813 0.046875-0.015625 0.078125-0.015625s0.054687 0.011719 0.078125 0.03125c0.019531 0.011719 0.039062 0.03125 0.0625 0.0625z"/>
  </symbol>
  <symbol id="p" overflow="visible">
   <path d="m0.54688-0.28125v0.28125h-0.17188v-0.20312-0.09375-0.03125c0-0.007813-0.007812-0.015625-0.015625-0.015625-0.011719-0.007812-0.027344-0.015625-0.046875-0.015625-0.023438 0-0.042969 0.011719-0.0625 0.03125-0.023438 0.023437-0.03125 0.058594-0.03125 0.10938v0.21875h-0.15625v-0.64062h0.15625v0.25c0.019531-0.03125 0.039062-0.050781 0.0625-0.0625 0.03125-0.007813 0.0625-0.015625 0.09375-0.015625 0.050781 0 0.09375 0.015625 0.125 0.046875s0.046875 0.078125 0.046875 0.14062z"/>
  </symbol>
  <symbol id="o" overflow="visible">
   <path d="m0.078125-0.625h0.17188l0.21875 0.42188v-0.42188h0.15625v0.625h-0.17188l-0.23438-0.42188v0.42188h-0.14062z"/>
  </symbol>
  <symbol id="n" overflow="visible">
   <path d="m0.0625-0.1875v-0.28125h0.14062v0.046875 0.10938 0.0625 0.09375c0.007813 0.011719 0.015625 0.023438 0.015625 0.03125 0.007812 0 0.019531 0.007812 0.03125 0.015625h0.046875c0.019531 0 0.035156-0.007813 0.046875-0.03125 0.019531-0.019531 0.03125-0.050781 0.03125-0.09375v-0.23438h0.15625v0.46875h-0.15625v-0.0625c-0.023438 0.023438-0.042969 0.042969-0.0625 0.0625-0.023438 0.0078125-0.054688 0.015625-0.09375 0.015625-0.054688 0-0.09375-0.015625-0.125-0.046875-0.023438-0.039062-0.03125-0.09375-0.03125-0.15625z"/>
  </symbol>
  <symbol id="m" overflow="visible">
   <path d="m0.078125-0.625h0.26562c0.082031 0 0.14062 0.023438 0.17188 0.0625 0.039063 0.03125 0.0625 0.085938 0.0625 0.15625 0 0.0625-0.023437 0.11719-0.0625 0.15625-0.03125 0.03125-0.089844 0.046875-0.17188 0.046875h-0.10938v0.20312h-0.15625zm0.15625 0.125v0.17188h0.09375c0.03125 0 0.050781-0.003906 0.0625-0.015625 0.019531-0.019531 0.03125-0.039062 0.03125-0.0625 0-0.039062-0.011719-0.066406-0.03125-0.078125-0.011719-0.007813-0.03125-0.015625-0.0625-0.015625z"/>
  </symbol>
  <symbol id="l" overflow="visible">
   <path d="m0.0625-0.46875h0.15625v0.45312c0 0.0625-0.015625 0.10938-0.046875 0.14062-0.03125 0.039062-0.074219 0.0625-0.125 0.0625h-0.078125v-0.10938h0.03125c0.03125 0 0.046875-0.0078125 0.046875-0.015625 0.0078125-0.011719 0.015625-0.039062 0.015625-0.078125zm0-0.17188h0.15625v0.10938h-0.15625z"/>
  </symbol>
  <symbol id="k" overflow="visible">
   <path d="m0.45312-0.45312v0.125c-0.03125-0.007813-0.058594-0.019531-0.078125-0.03125-0.011719-0.007813-0.03125-0.015625-0.0625-0.015625s-0.0625 0.015625-0.09375 0.046875c-0.023438 0.023437-0.03125 0.058594-0.03125 0.10938 0 0.03125 0.007812 0.0625 0.03125 0.09375 0.03125 0.023438 0.0625 0.03125 0.09375 0.03125s0.054688-0.0039062 0.078125-0.015625c0.019531-0.007813 0.039063-0.015625 0.0625-0.015625v0.10938c-0.03125 0.011719-0.058594 0.015625-0.078125 0.015625-0.023438 0.0078125-0.046875 0.015625-0.078125 0.015625-0.085937 0-0.14844-0.019531-0.1875-0.0625-0.042969-0.050781-0.0625-0.10938-0.0625-0.17188 0-0.082031 0.019531-0.14453 0.0625-0.1875 0.039063-0.039062 0.10156-0.0625 0.1875-0.0625h0.078125c0.019531 0 0.046875 0.007812 0.078125 0.015625z"/>
  </symbol>
 </defs>
 <g>
  <path d="m255.46 194.65v-11.977h-5.2305c-0.33594 0 0-28.168 0-28.508-1.1797-5.0586-14.676 1.6875-14.676 9.2773l-0.16797 19.23h-4.0469v-52.457c0-8.6016-19.902-8.9414-19.902 0l-0.16797 19.902v32.723c-0.67578 0-3.375 0.16797-4.0469 0l-0.16797-19.23c0.33594-5.7344-12.145-14.844-14.676-9.2773v28.508h-6.0742v11.637l-3.543 2.3633v2.1914h76.41v-1.8555l-3.543-2.3633zm127.52 0v-11.977h-5.2305c-0.33594 0 0-28.168 0-28.508-1.1797-5.0586-14.676 1.6875-14.676 9.2773l-0.16797 19.23h-4.0469v-52.457c0-8.6016-19.902-8.9414-19.902 0l-0.16797 19.902v32.723c-0.67578 0-3.375 0.16797-4.0469 0l-0.16797-19.23c0.33594-5.7344-12.145-14.844-14.676-9.2773v28.508h-6.0742v11.637l-3.543 2.3633v2.1914h76.41v-1.8555l-3.543-2.3633zm130.89 0v-11.977h-5.2305c-0.33594 0 0-28.168 0-28.508-1.1797-5.0586-14.676 1.6875-14.676 9.2773l-0.16797 19.23h-4.0469v-52.457c0-8.6016-19.902-8.9414-19.902 0l-0.16797 19.902v32.723c-0.67578 0-3.375 0.16797-4.0469 0l-0.16797-19.23c0.33594-5.7344-12.145-14.844-14.676-9.2773v28.508h-6.0742v11.637l-3.543 2.3633v2.1914h76.41v-1.8555l-3.543-2.3633zm-35.254-194.65c20.746 0 37.781 16.867 37.781 37.781 0 20.746-16.867 37.781-37.781 37.781-20.746 0-37.781-16.867-37.781-37.781 0-20.746 16.867-37.781 37.781-37.781zm0 10.965c14.844 0 26.82 11.977 26.82 26.82s-11.977 26.82-26.82 26.82-26.82-11.977-26.82-26.82 11.977-26.82 26.82-26.82zm0 15.855c6.0742 0 10.965 4.8906 10.965 10.965 0 6.0742-4.8906 10.965-10.965 10.965s-10.965-4.8906-10.965-10.965c0-6.0742 4.8906-10.965 10.965-10.965zm0-9.9531c11.469 0 20.914 9.2773 20.914 20.914 0 11.469-9.2773 20.914-20.914 20.914-11.469 0-20.914-9.2773-20.914-20.914 0-11.469 9.2773-20.914 20.914-20.914zm0-10.965c17.543 0 31.711 14.168 31.711 31.711s-14.168 31.711-31.711 31.711-31.711-14.168-31.711-31.711 14.168-31.711 31.711-31.711zm-37.613 195.83 1.0117 76.914h74.723l0.67578-76.914zm1.0117 79.109v1.3477c2.3633 0 4.2188 1.8555 4.2188 4.2188 0 2.3633-1.8555 4.2188-4.2188 4.2188v1.3477h74.555v-1.3477c-2.3633 0-4.2188-1.8555-4.2188-4.2188 0-2.3633 1.8555-4.2188 4.2188-4.2188v-1.3477zm0 13.492v1.3477c2.3633 0 4.2188 1.8555 4.2188 4.2188 0 2.3633-1.8555 4.2188-4.2188 4.2188v1.3477h74.555v-1.3477c-2.3633 0-4.2188-1.8555-4.2188-4.2188 0-2.3633 1.8555-4.2188 4.2188-4.2188v-1.3477zm0 13.324v1.3477c2.3633 0 4.2188 1.8555 4.2188 4.2188 0 2.3633-1.8555 4.2188-4.2188 4.2188v0.33594l0.16797 1.0117h74.047l0.16797-1.0117v-0.33594c-2.3633 0-4.2188-1.8555-4.2188-4.2188 0-2.3633 1.8555-4.2188 4.2188-4.2188v-1.3477h-74.555zm0.67578 13.324 7.7578 36.941h57.52l7.7578-36.941h-73.203zm8.2656 39.133 0.33594 1.3477c3.2031 0 5.7344 2.5312 5.7344 5.7344 0 2.3633-1.3477 4.3867-3.543 5.2305l0.16797 1.1797h50.941l0.16797-1.1797c-2.0234-0.84375-3.375-2.8672-3.375-5.2305 0-3.2031 2.5312-5.7344 5.7344-5.7344l0.33594-1.3477h-56.676zm3.375 15.855 3.7109 17.543h4.2188v12.82h4.2188v63.926h4.2188v89.902h16.867v-89.902h4.2188v-63.926h4.2188v-12.82h4.2188l3.7109-17.375h-49.926zm-106.6-375.98c20.746 0 37.781 16.867 37.781 37.781 0 20.746-16.867 37.781-37.781 37.781-20.746 0-37.781-16.867-37.781-37.781 0-20.746 16.867-37.781 37.781-37.781zm0 10.965c14.844 0 26.82 11.977 26.82 26.82s-11.977 26.82-26.82 26.82-26.82-11.977-26.82-26.82 11.977-26.82 26.82-26.82zm0 15.855c6.0742 0 10.965 4.8906 10.965 10.965s-4.8906 10.965-10.965 10.965c-6.0742 0-10.965-4.8906-10.965-10.965s4.8906-10.965 10.965-10.965zm0-9.9531c11.469 0 20.914 9.2773 20.914 20.914 0 11.469-9.2773 20.914-20.914 20.914-11.469 0-20.914-9.2773-20.914-20.914 0-11.469 9.2773-20.914 20.914-20.914zm0-10.965c17.543 0 31.711 14.168 31.711 31.711s-14.168 31.711-31.711 31.711c-17.543 0-31.711-14.168-31.711-31.711s14.168-31.711 31.711-31.711zm-37.613 195.83 1.0117 76.914h74.723l0.67578-76.914zm1.0117 79.109v1.3477c2.3633 0 4.2188 1.8555 4.2188 4.2188s-1.8555 4.2188-4.2188 4.2188v1.3477h74.555v-1.3477c-2.3633 0-4.2188-1.8555-4.2188-4.2188s1.8555-4.2188 4.2188-4.2188v-1.3477zm0 13.492v1.3477c2.3633 0 4.2188 1.8555 4.2188 4.2188 0 2.3633-1.8555 4.2188-4.2188 4.2188v1.3477h74.555v-1.3477c-2.3633 0-4.2188-1.8555-4.2188-4.2188 0-2.3633 1.8555-4.2188 4.2188-4.2188v-1.3477zm0 13.324v1.3477c2.3633 0 4.2188 1.8555 4.2188 4.2188 0 2.3633-1.8555 4.2188-4.2188 4.2188v0.33594l0.16797 1.0117h74.047l0.16797-1.0117v-0.33594c-2.3633 0-4.2188-1.8555-4.2188-4.2188 0-2.3633 1.8555-4.2188 4.2188-4.2188v-1.3477h-74.555zm0.67578 13.324 7.7578 36.941h57.52l7.7578-36.941h-73.203zm8.2656 39.133 0.33594 1.3477c3.2031 0 5.7344 2.5312 5.7344 5.7344 0 2.3633-1.3477 4.3867-3.543 5.2305l0.16797 1.1797h50.941l0.16797-1.1797c-2.0234-0.84375-3.375-2.8672-3.375-5.2305 0-3.2031 2.5312-5.7344 5.7344-5.7344l0.33594-1.3477h-56.676zm3.375 15.855 3.7109 17.543h4.2188v12.82h4.2188v63.926h4.2188v89.902h16.867v-89.902h4.2188v-63.926h4.2188v-12.82h4.2188l3.7109-17.375h-49.926zm-103.23-375.98c20.746 0 37.781 16.867 37.781 37.781 0 20.746-16.867 37.781-37.781 37.781-20.746 0-37.781-16.867-37.781-37.781 0-20.746 16.867-37.781 37.781-37.781zm0 10.965c14.844 0 26.82 11.977 26.82 26.82s-11.977 26.82-26.82 26.82-26.82-11.977-26.82-26.82 11.977-26.82 26.82-26.82zm0 15.855c6.0742 0 10.965 4.8906 10.965 10.965 0 6.0742-4.8906 10.965-10.965 10.965-6.0742 0-10.965-4.8906-10.965-10.965 0-6.0742 4.8906-10.965 10.965-10.965zm0-9.9531c11.469 0 20.914 9.2773 20.914 20.914 0 11.469-9.2773 20.914-20.914 20.914-11.469 0-20.914-9.2773-20.914-20.914 0-11.469 9.2773-20.914 20.914-20.914zm0-10.965c17.543 0 31.711 14.168 31.711 31.711s-14.168 31.711-31.711 31.711c-17.543 0-31.711-14.168-31.711-31.711s14.168-31.711 31.711-31.711zm-37.613 195.83 1.0117 76.914h74.723l0.67578-76.914zm1.0117 79.109v1.3477c2.3633 0 4.2188 1.8555 4.2188 4.2188 0 2.3633-1.8555 4.2188-4.2188 4.2188v1.3477h74.555v-1.3477c-2.3633 0-4.2188-1.8555-4.2188-4.2188 0-2.3633 1.8555-4.2188 4.2188-4.2188v-1.3477zm0 13.492v1.3477c2.3633 0 4.2188 1.8555 4.2188 4.2188s-1.8555 4.2188-4.2188 4.2188v1.3477h74.555v-1.3477c-2.3633 0-4.2188-1.8555-4.2188-4.2188s1.8555-4.2188 4.2188-4.2188v-1.3477zm0 13.324v1.3477c2.3633 0 4.2188 1.8555 4.2188 4.2188s-1.8555 4.2188-4.2188 4.2188v0.33594l0.16797 1.0117h74.047l0.16797-1.0117v-0.33594c-2.3633 0-4.2188-1.8555-4.2188-4.2188s1.8555-4.2188 4.2188-4.2188v-1.3477h-74.555zm0.67578 13.324 7.7578 36.941h57.52l7.7578-36.941h-73.203zm8.2656 39.133 0.33594 1.3477c3.2031 0 5.7344 2.5312 5.7344 5.7344 0 2.3633-1.3477 4.3867-3.543 5.2305l0.16797 1.1797h50.941l0.16797-1.1797c-2.0234-0.84375-3.375-2.8672-3.375-5.2305 0-3.2031 2.5312-5.7344 5.7344-5.7344l0.33594-1.3477h-56.676zm3.375 15.855 3.7109 17.543h4.2188v12.82h4.2188v63.926h4.2188v89.902h16.867v-89.902h4.2188v-63.926h4.2188v-12.82h4.2188l3.7109-17.375h-49.926z" fill-rule="evenodd"/>
  <use x="182.589844" y="562.53125" xlink:href="#u"/>
  <use x="183.210938" y="562.53125" xlink:href="#d"/>
  <use x="183.625" y="562.53125" xlink:href="#a"/>
  <use x="184.195312" y="562.53125" xlink:href="#f"/>
  <use x="184.765625" y="562.53125" xlink:href="#c"/>
  <use x="185.167969" y="562.53125" xlink:href="#a"/>
  <use x="185.742187" y="562.53125" xlink:href="#j"/>
  <use x="186.640625" y="562.53125" xlink:href="#i"/>
  <use x="187.242187" y="562.53125" xlink:href="#h"/>
  <use x="188.085938" y="562.53125" xlink:href="#g"/>
  <use x="188.804687" y="562.53125" xlink:href="#t"/>
  <use x="189.363281" y="562.53125" xlink:href="#f"/>
  <use x="189.933594" y="562.53125" xlink:href="#b"/>
  <use x="190.828125" y="562.53125" xlink:href="#s"/>
  <use x="191.46875" y="562.53125" xlink:href="#a"/>
  <use x="192.042969" y="562.53125" xlink:href="#b"/>
  <use x="192.640625" y="562.53125" xlink:href="#b"/>
  <use x="182.589844" y="563.375" xlink:href="#r"/>
  <use x="182.957031" y="563.375" xlink:href="#d"/>
  <use x="183.375" y="563.375" xlink:href="#e"/>
  <use x="183.953125" y="563.375" xlink:href="#q"/>
  <use x="185.125" y="563.375" xlink:href="#c"/>
  <use x="185.527344" y="563.375" xlink:href="#p"/>
  <use x="186.128906" y="563.375" xlink:href="#a"/>
  <use x="186.996094" y="563.375" xlink:href="#o"/>
  <use x="187.699219" y="563.375" xlink:href="#e"/>
  <use x="188.28125" y="563.375" xlink:href="#n"/>
  <use x="188.878906" y="563.375" xlink:href="#b"/>
  <use x="189.773438" y="563.375" xlink:href="#m"/>
  <use x="190.390625" y="563.375" xlink:href="#d"/>
  <use x="190.808594" y="563.375" xlink:href="#e"/>
  <use x="191.386719" y="563.375" xlink:href="#l"/>
  <use x="191.675781" y="563.375" xlink:href="#a"/>
  <use x="192.25" y="563.375" xlink:href="#k"/>
  <use x="192.75" y="563.375" xlink:href="#c"/>
 </g>
</svg>
